<?xml version="1.0" encoding="UTF-8"?>
<!DOCTYPE svg PUBLIC "-//W3C//DTD SVG 1.1//EN" "http://www.w3.org/Graphics/SVG/1.1/DTD/svg11.dtd">
<!-- Creator: CorelDRAW 2017 -->
<svg xmlns="http://www.w3.org/2000/svg" xml:space="preserve" width="9.40646cm" height="5.29166cm" version="1.1" style="shape-rendering:geometricPrecision; text-rendering:geometricPrecision; image-rendering:optimizeQuality; fill-rule:evenodd; clip-rule:evenodd"
viewBox="0 0 9406 5292"
 xmlns:xlink="http://www.w3.org/1999/xlink">
 <defs>
  <style type="text/css">
   <![CDATA[
    .fil8 {fill:#FFED00}
    .fil7 {fill:#EF7F1A}
    .fil9 {fill:black}
    .fil3 {fill:#27A11A}
    .fil4 {fill:#505968}
    .fil10 {fill:#73BA25}
    .fil6 {fill:#A6ADB9}
    .fil5 {fill:#B7FF69}
    .fil0 {fill:#E6E7E8}
    .fil11 {fill:#FEFEFD}
    .fil2 {fill:#373435;fill-opacity:0.031373}
    .fil1 {fill:#2B2A29;fill-opacity:0.101961}
   ]]>
  </style>
 </defs>
 <g id="Layer_x0020_1">
  <metadata id="CorelCorpID_0Corel-Layer"/>
  <polygon class="fil0" points="0,0 9406,0 9406,5292 0,5292 "/>
  <path class="fil1" d="M2796 5292l-114 0 -19 0 -3 0 -5 0 -19 0 -10 0 -64 0 -15 0 -56 0 -105 0 -64 0 -3 0 -19 0 -28 0 -9 0 -7 0 -6 0 -13 0 -8 0 -7 0 -3 0 -33 0 -9 0 -64 0 -9 0 -4 0 -40 0 -4 0 -55 0 -27 0 -17 0 -22 0 -12 0 -3 0 0 0 -13 0 -8 0 0 0 -8 0 -2 0 -34 0 -1 0 -15 0 -8 0 -31 0 -3 0 -3 0 -3 0 -35 0 -24 0 -18 0 -4 0 0 0 -24 0 -29 0 -3 0 0 0 -2 0 -2 0 -8 0 -11 0 -16 0 -2 0 -10 0 -19 0 -14 0 -15 0 -37 0 -6 0 -11 0 -27 0 -56 0 0 0 -19 0 -18 0 -18 0 0 0 -10 0 -14 0 -1 0 -2 0 -19 0 0 0 -26 0 -32 0 -2 0 -17 0 -29 0 -20 0 -46 0 -10 0 -47 0 -57 0 -15 0 -5 0 -30 0 -2 0 -35 0 -26 0 -5 0 -12 0 -4 0 -17 0 -4 0 -2 0 -13 0 -62 0 -102 0 -58 0 -79 0 -79 0 -95 0 -23 0 -81 0 -4 0 -173 0 -44 0 -59 0 -4 0 0 -8 0 -10 0 -108 0 -12 0 -2 0 -43 0 -4 0 -25 0 -2 0 -5 0 -14 0 -14 0 -34 0 -21 0 0 0 -2 0 -1 0 -21 0 -8 0 -4 0 -3 0 -7 0 -1 0 -3 0 0 0 -12 0 -1 0 -18 0 0 0 -2 0 -6 0 -10 0 0 0 -6 0 -3 0 -22 0 -2 0 -12 0 -5 0 0 0 -1 0 -4 0 -1 0 -14 0 -21 0 -5 0 -2 0 -3 0 -1 0 -10 0 -5 0 -11 0 -12 0 -6 0 -5 0 -3 0 0 0 -1 0 -4 0 -2 0 -7 0 -9 0 -1 0 -43 0 -7 0 -4 0 -20 0 0 0 -4 0 -2 0 0 0 -9 0 -5 0 -1 0 -8 0 -10 0 -5 0 -7 0 -1 0 -2 0 -4 0 -2 0 -4 0 -17 0 -9 0 -7 0 -1 0 -6 0 -1 0 -2 0 -1 0 -1 0 -6 0 -5 0 -1 0 -1 0 -5 0 -11 0 -12 0 -3 0 -4 0 -2 0 -59 0 -143 0 -6 0 -3 0 -2 0 -16 0 -5 0 -2 0 -8 0 -3 0 -3 0 -6 0 -1 0 -6 0 -16 0 -9 0 -3 0 -26 0 -2 0 -13 0 -7 0 -9 0 -2 0 -21 0 -14 0 -5 0 -10 0 -30 0 -29 0 -2 0 -12 0 -15 0 0 0 -1 0 -3 0 -2 0 -18 0 -4 0 -3 0 -14 0 -1 0 -1 0 -8 0 -4 0 -2 0 -14 0 -19 0 -4 0 -1 0 -9 0 -8 0 -3 0 0 0 -11 0 -7 0 -10 0 -11 0 -17 0 -9 0 -4 0 -1 0 -5 0 -8 0 -12 0 -9 0 -8 0 -9 0 -4 0 -13 0 -44 0 -15 0 -52 0 -30 0 -1 0 -29 0 -15 0 -9 0 -1 0 -3 0 -4 0 -7 0 -14 0 -63 0 -14 0 -33 0 -41 0 -2 0 -4 0 -22 0 -7 0 -18 0 -1 0 -19 0 -51 0 -1 0 -193 0 -26 0 -31 0 -19 0 -52 0 -57 2769 -1826 -20 15 -19 17 -17 19 -15 20 -13 22 -11 23 -5 13 127 -83 -16 12 -15 14 -14 15 -12 16 -11 17 -9 18 -7 19 0 0 113 -74 -12 9 -11 10 -10 11 -9 12 -8 13 -7 14 -5 14 -4 15 -2 16 -1 16 0 212 1131 -730 -8 7 -164 164 197 -126 -63 63 399 -256 -8 6 -6 8 -5 9 -3 10 -1 11 0 32 49 -32 0 86 54 -34 0 122 -1 9 -2 9 -4 8 -5 7 -6 6 -7 5 -436 276 1 4 0 9 -1 9 -3 8 -4 8 -8 13 -8 13 -8 13 -7 13 -7 13 -7 14 -6 14 -6 14 -6 14 -5 14 -5 14 -5 14 -4 14 -4 14 -4 15 -3 15 -3 9 -4 8 -5 7 -6 6 -7 5 -147 92 0 43 623 -389 -17 11 -16 12 -16 12 -15 13 -15 14 -6 7 792 -495 -8 7 -95 95 -744 464 -2 2 -10 18 178 -111 -15 10 -14 10 -14 11 -13 12 -12 12 778 -484 -124 124 -718 446 -4 7 152 -94 -24 18 -22 20 -20 22 -3 4 764 -474 -87 87 -7 6 -705 437 -9 19 -11 29 -8 30 -5 31 -2 32 2 32 5 31 8 30 11 29 13 28 12 20 982 -598 -33 33 6 10 6 11 6 11 6 11 5 11 5 11 5 11 5 11 5 11 4 11 4 11 4 11 4 11 4 11 3 12 3 12 134 0 11 1 10 3 9 5 8 6 6 8 5 9 3 10 1 11 0 315 -1 11 -3 10 -5 9 -6 8 -8 6 -203 119 -1 3 -5 11 -5 11 -5 11 -6 11 -6 11 -6 10 95 95 7 8 5 9 3 10 1 10 -1 10 -3 10 -5 9 -7 8 -13 13 240 -139 -39 25 -37 27 -36 28 -35 30 -33 32 -32 33 -30 35 -28 36 -20 28 354 -203 19 -11 19 -10 19 -9 19 -9 19 -8 20 -8 20 -7 20 -7 20 -6 21 -6 21 -5 21 -5 22 -4 22 -4 22 -3 23 -3 23 -2 23 -2 24 -1 24 -1 24 -1 25 0 30 1 29 2 29 3 29 4 29 5 28 6 28 8 28 9 27 10 27 11 27 12 26 13 26 14 25 14 25 15 24 16 24 17 23 18 23 19 22 19 21 20 21 21 20 21 20 22 19 23 18 23 17 24 17 24 16 25 15 25 14 26 13 26 14 29 13 30 11 30 10 31 9 31 7 32 6 32 5 32 4 32 2 32 1 33 0 33 -1 33 -3 33 -4 33 -5 32 -6 32 -8 32 -9 32 -10 31 -11 31 -12 31 -13 30 -15 30 -16 29 -17 29 -18 28 -19 27 -20 27 -21 26 -22 25 -23 24 -32 31 -33 29 -34 27 -35 25 -36 23 -37 21 -378 195 29 -1 49 -4 48 -6 47 -8 46 -11 45 -13 44 -15 43 -17 42 -19 -823 422 0 1 -2 9 -1 10 -1 10 -1 10 0 10 0 10 0 19 0 8 152 -77 10 -5 12 -3 13 -2 12 -1 12 0 236 0 17 -1 9 -2 227 -115 -5 3 -4 3 -4 3 -3 4 -3 4 -3 5 -2 5 -2 6 -2 6 -1 7 -1 7 0 7 0 126 136 -68 334 0 13 -1 11 -4 -495 245 0 94 136 -67 239 0 16 -1 14 -2 12 -4 -416 203 1 10 3 14 6 12 8 10 10 8 12 6 14 3 15 1 399 0 19 -1 16 -3 13 -5 -1554 744 -28 0 -381 0 -188 0 -10 0 -15 0 -66 0 -62 0 -96 0 -132 0 -47 0 -12 0 -2 0 -26 0 -191 0 -54 0 -1 0 -28 0 -7 0 -55 0 -87 0 -72 0 -18 0 -46 0 -20 0 -6 0 -4 0 -3 0 -18 0 -218 0 -35 0 -42 0 -5 0 -2 0 -86 0 -19 0 0 0 -23 0 -66 0 -23 0 -57 0 -21 0 -57 0 -11 0 -12 0zm117 -4208l0 0zm2625 -99l0 0z"/>
  <path class="fil2" d="M551 4639c18,28 30,53 41,81 8,18 13,48 53,48 13,0 28,-3 43,-13 18,-8 30,-23 36,-43l15 -53 38 -18 3 3c-5,20 -8,41 -8,53 0,46 38,61 69,61 18,0 33,-10 33,-25 0,-20 -10,-58 -20,-89 18,-18 36,-36 56,-51l3 3c10,38 15,76 15,102 0,25 -10,51 -20,69 -18,36 -51,64 -91,64 -30,0 -64,-15 -86,-43l-3 0c-23,28 -56,51 -109,51l-18 0c-3,36 -10,61 -23,84 -33,64 -127,107 -216,107 -124,0 -185,-71 -185,-168 0,-58 20,-114 48,-152l25 10c-18,36 -30,69 -30,102 0,89 74,132 157,132 79,0 173,-48 191,-107 -8,-64 -30,-91 -66,-150 10,-18 25,-38 43,-58l3 0 0 0 5 3zm1433 -338c25,15 51,36 76,58 -15,20 -30,38 -53,53 -25,-20 -51,-38 -76,-56 18,-20 36,-38 51,-56l0 0 3 0zm13 244c-43,0 -76,28 -76,48 0,43 84,58 185,58 -13,-51 -56,-107 -109,-107zm-94 236c56,0 104,-3 140,-10 41,-10 76,-30 76,-46 0,-5 0,-8 -3,-13 -23,3 -48,3 -74,3 -74,0 -132,-18 -155,-58 -5,-13 -10,-25 -10,-41 0,-41 18,-81 48,-107 25,-23 53,-36 84,-36 51,0 94,41 122,107 15,36 28,76 28,130 0,36 -10,64 -30,86 -41,38 -114,53 -229,53l-51 0 0 0 -13 0c-28,0 -48,-5 -64,-18l-3 0c0,8 3,13 3,18 0,25 -8,58 -25,84 -51,76 -107,109 -152,109 -48,0 -107,-18 -160,-43l10 -18c18,8 41,13 74,13 86,0 198,-84 213,-163 -3,-8 -10,-15 -18,-25 -25,-30 -41,-56 -56,-81 13,-25 25,-46 36,-64l5 0c36,74 71,117 145,117l13 0 0 0 53 0 0 0 -8 3zm-371 79c5,-36 8,-74 8,-109l0 -53c0,-99 -13,-244 -23,-338 18,-20 43,-43 64,-58l5 3c13,119 18,257 18,384 0,33 -3,66 -5,89 -3,30 -20,53 -56,89l-8 -3 0 0 -3 -3zm-384 -158c3,46 25,84 104,84 51,0 91,-13 140,-36 8,-3 13,-8 13,-13 0,-30 -23,-69 -61,-104 -36,-33 -86,-64 -130,-81 -15,-8 -20,-13 -20,-20 0,-13 18,-41 33,-61l5 0c51,28 109,69 152,112 38,41 64,84 64,130 0,33 -10,66 -28,97 -56,28 -117,51 -178,51 -74,0 -122,-36 -122,-114 0,-8 0,-23 3,-41l25 0 0 0 0 -3zm-132 -132l46 74c18,28 33,56 33,104l0 61c0,48 -30,99 -81,152 -38,36 -74,51 -107,51 -48,0 -102,-15 -165,-43l8 -18c20,5 43,10 71,10 91,0 183,-66 226,-147 5,-10 8,-18 8,-23 0,-10 -5,-20 -10,-28 -23,-43 -48,-84 -76,-119 15,-23 30,-46 46,-69l3 0 0 -5z"/>
  <g id="_2751690752848">
   <path class="fil3" d="M6192 3973l0 515c0,44 25,68 68,68l399 0c56,0 75,-20 75,-72 0,-32 -27,-55 -58,-55l-348 0 0 -133 239 0c44,0 69,-15 74,-56 5,-37 -18,-70 -57,-70l-256 0 0 -140 334 0c74,0 73,-123 0,-123l-416 0c-17,0 -32,8 -40,18 -9,10 -14,28 -14,47z"/>
   <path class="fil3" d="M5523 4093c0,101 22,179 138,197 30,5 193,2 245,1 52,0 44,25 44,79 0,70 -33,61 -75,61l-273 0c-26,0 -41,1 -57,12 -26,18 -49,115 53,115l304 0c58,0 102,-10 132,-38 59,-55 49,-137 49,-218 0,-43 -21,-81 -46,-101 -37,-28 -59,-29 -121,-29 -24,0 -206,2 -220,-1 -45,-12 -36,-52 -36,-98 0,-39 45,-41 75,-41l236 0c50,0 65,-23 65,-68 0,-31 -24,-55 -55,-55l-304 0c-46,0 -88,30 -112,55 -11,12 -26,36 -32,53 -6,19 -10,49 -10,76z"/>
   <path class="fil3" d="M4175 4076c0,63 -4,121 40,165 16,16 22,24 44,34 57,28 221,14 305,16 44,1 37,34 37,75 0,73 -33,65 -72,65l-273 0c-67,0 -82,16 -82,75 0,32 33,51 68,51 66,0 340,6 388,-8 114,-34 104,-151 104,-238 0,-38 -10,-75 -36,-100 -38,-38 -71,-40 -138,-40 -34,0 -205,7 -228,-7 -21,-12 -24,-34 -24,-61 0,-92 54,-72 181,-72 42,0 84,0 126,0 52,0 72,-16 72,-68 0,-30 -25,-55 -55,-55l-304 0c-73,0 -154,71 -154,167z"/>
   <path class="fil3" d="M4844 3966l0 416c0,112 84,177 201,177l167 0c133,0 201,-70 201,-201l0 -382c0,-33 -21,-68 -51,-68 -29,0 -61,-5 -79,34 -12,28 -7,191 -7,229 0,31 6,210 -5,230 -8,15 -27,29 -49,29l-188 0c-60,0 -58,-63 -58,-99l0 -317c0,-78 6,-106 -82,-106 -13,0 -30,10 -36,18 -8,10 -15,23 -15,40z"/>
   <path class="fil3" d="M2998 4441l0 -157c0,-70 50,-55 143,-55 20,0 38,18 38,38l0 184c0,52 -77,41 -123,41 -35,0 -58,-16 -58,-51zm-17 287l-31 0c-11,-1 -20,-6 -20,-17l0 -529c0,-18 22,-17 34,-17 45,0 3,52 71,23 57,-23 45,-27 113,-27 56,0 102,40 102,96l0 205c0,103 -123,112 -196,80 -15,-7 -36,-18 -53,-18 -15,65 16,205 -20,205z"/>
   <path class="fil3" d="M3418 4256c0,-6 8,-16 12,-19 18,-14 96,-8 132,-8 45,0 38,60 38,99l-181 0 0 -72zm-72 -7l0 212c0,54 45,96 99,96l126 0c25,0 36,-22 32,-42 -6,-28 -28,-23 -59,-23 -139,0 -126,3 -126,-102l198 0c66,0 51,-73 51,-140 0,-42 -44,-85 -85,-85l-143 0c-46,0 -92,41 -92,85z"/>
   <path class="fil3" d="M2708 4492c-46,0 -123,10 -123,-34l0 -201c0,-39 95,-27 136,-27 26,0 41,18 41,38l0 181c0,32 -22,44 -55,44zm-195 -242l0 218c0,48 48,89 99,89 76,0 150,12 191,-28l3 -3c0,-1 1,-1 2,-2 2,-2 4,-5 6,-7 13,-15 20,-37 20,-59l0 -198c0,-53 -46,-96 -89,-96l-147 0c-41,0 -85,44 -85,85z"/>
   <path class="fil3" d="M3813 4198c-11,-40 -32,-34 -51,-34 -11,0 -17,12 -17,24l0 345c0,24 51,35 66,8 6,-11 3,-34 3,-48 0,-38 -6,-222 8,-245 17,-28 84,-18 135,-18 38,0 38,38 38,61 0,33 -3,228 3,246 12,32 68,26 68,-10l0 -276c0,-51 -49,-89 -106,-89 -36,0 -51,1 -84,15 -18,8 -41,22 -63,22z"/>
  </g>
  <polygon class="fil4" points="4016,3239 3911,3660 4540,3660 4437,3239 4437,3188 4016,3188 "/>
  <path class="fil5" d="M2914 1036l2623 0c115,0 210,95 210,210l0 1785c0,115 -95,210 -210,210l-2623 0c-115,0 -210,-95 -210,-210l0 -1785c0,-115 95,-210 210,-210z"/>
  <path class="fil6" d="M2703 3031c0,115 95,210 210,210l2623 0c115,0 210,-95 210,-210l0 -105 -3044 0 0 105z"/>
  <path class="fil7" d="M5327 1667l0 -315 -175 0c-19,-85 -52,-165 -99,-239l124 -124 -223 -223 -124 124c-72,-47 -155,-80 -239,-99l0 -175 -315 0 0 175c-84,19 -165,52 -239,99l-124 -124 -223 223 124 124c-47,72 -80,155 -99,239l-175 0 0 315 175 0c19,84 52,165 99,239l-124 124 223 223 124 -124c72,47 155,80 239,99l0 175 315 0 0 -175c84,-19 165,-52 239,-99l124 124 223 -223 -124 -124c47,-72 80,-155 99,-239l175 0zm-892 210c-202,0 -367,-165 -367,-367 0,-202 165,-367 367,-367 202,0 367,165 367,367 0,202 -165,367 -367,367z"/>
  <path class="fil8" d="M4016 2190c0,-19 -2,-39 -4,-58l117 -68 -157 -272 -117 68c-31,-25 -64,-43 -101,-58l0 -136 -315 0 0 136c-35,14 -70,35 -101,58l-117 -68 -157 272 117 68c-6,39 -6,78 0,115l-117 68 157 272 117 -68c31,25 64,43 101,58l0 136 315 0 0 -136c37,-14 70,-35 101,-58l117 68 157 -272 -117 -68c2,-19 4,-39 4,-58l0 0 0 0zm-420 210c-115,0 -210,-95 -210,-210 0,-115 95,-210 210,-210 115,0 210,95 210,210 0,115 -95,210 -210,210z"/>
  <path class="fil9" d="M5537 983l-309 0c0,-12 -6,-23 -14,-31l-223 -223c-21,-21 -54,-21 -74,0l-95 95c-56,-31 -115,-58 -177,-74l0 -134c0,-29 -23,-52 -52,-52l-315 0c-29,0 -52,23 -52,52l0 134c-62,16 -122,41 -177,74l-95 -95c-21,-21 -54,-21 -74,0l-223 223c-8,8 -12,21 -14,31l-727 0c-144,0 -262,117 -262,262l0 1785c0,144 117,262 262,262l1035 0 -89 354c-6,29 10,56 39,64 4,2 8,2 12,2l631 0c29,0 52,-23 52,-52 0,-4 0,-8 -2,-12l-89 -354 1034 0c144,0 262,-117 262,-262l0 -1785c0,-144 -117,-262 -262,-262l0 0 -2 -2zm-1684 93l-87 -87 148 -148 87 87c16,16 45,21 66,6 68,-43 142,-74 220,-93 25,-6 41,-27 41,-52l0 -122 210 0 0 122c0,25 16,45 41,52 78,16 153,47 220,93 21,12 47,10 66,-6l87 -87 148 148 -87 87c-16,16 -21,45 -6,66 43,68 74,142 93,221 6,25 27,41 52,41l122 0 0 210 -122 0c-25,0 -45,16 -52,41 -16,78 -47,153 -93,221 -12,21 -10,47 6,66l87 87 -148 148 -87 -87c-16,-16 -45,-21 -66,-6 -68,43 -142,74 -220,93 -25,6 -41,27 -41,52l0 122 -210 0 0 -122c0,-25 -16,-45 -41,-52 -54,-12 -103,-29 -153,-54l19 -10c25,-14 33,-47 19,-72l-157 -272c-14,-25 -47,-33 -72,-19l-89 52c-16,-10 -33,-21 -52,-29l0 -101c0,-29 -23,-52 -52,-52l-157 0 0 -210 122 0c25,0 45,-16 52,-41 16,-78 47,-153 93,-221 12,-21 10,-47 -6,-66l0 0 -2 -6zm-396 1455c-31,-12 -62,-31 -89,-52 -16,-12 -39,-14 -58,-4l-72 41 -105 -181 72 -41c19,-10 29,-31 27,-52 -6,-33 -6,-68 0,-101 2,-21 -8,-41 -27,-52l-72 -41 105 -181 72 41c19,10 41,8 58,-4 27,-21 56,-37 89,-52 21,-8 33,-27 33,-49l0 -82 210 0 0 82c0,21 12,41 33,49 31,12 62,31 89,52 16,12 39,14 58,4l72 -41 105 181 -72 41c-19,10 -29,31 -27,52 6,33 6,68 0,101 -2,21 8,41 27,52l72 41 -105 181 -72 -41c-19,-10 -41,-8 -58,4 -27,21 -56,37 -89,52 -21,8 -33,27 -33,49l0 82 -210 0 0 -82c0,-21 -12,-41 -33,-49l0 0zm-544 -1443l806 0 33 33c-31,56 -58,115 -74,177l-134 0c-29,0 -52,23 -52,52l0 262 -52 0c-29,0 -52,23 -52,52l0 101c-19,8 -35,19 -52,29l-89 -52c-25,-14 -58,-6 -72,19l-157 272c-14,25 -6,58 19,72l89 52c0,10 -2,21 -2,29 0,10 0,19 2,29l-89 52c-25,14 -33,45 -19,72l157 272c14,25 47,33 72,19l89 -52c16,10 33,21 52,29l0 101c0,29 23,52 52,52l315 0c29,0 52,-23 52,-52l0 -101c19,-8 35,-19 52,-29l89 52c25,14 58,6 72,-19l157 -272c14,-25 6,-58 -19,-72l-89 -52c0,-6 0,-10 0,-16 49,27 103,47 159,64l0 134c0,29 23,52 52,52l315 0c29,0 52,-23 52,-52l0 -134c62,-16 122,-41 177,-74l95 95c21,21 54,21 74,0l223 -223c21,-21 21,-54 0,-74l-95 -95c31,-56 58,-115 74,-177l134 0c29,0 52,-23 52,-52l0 -315c0,-29 -23,-52 -52,-52l-134 0c-16,-62 -41,-122 -74,-177l33 -33 385 0c87,0 157,70 157,157l0 1626 -2939 0 0 -1626c0,-87 70,-157 157,-157l0 0 0 4zm1560 2518l-495 0 78 -315 338 0 78 315 0 0zm1063 -420l-2623 0c-87,0 -157,-70 -157,-157l0 -52 2939 0 0 52c0,87 -70,157 -157,157l-2 0z"/>
  <path class="fil9" d="M4437 1929c233,0 420,-188 420,-420 0,-233 -188,-420 -420,-420 -233,0 -420,188 -420,420 0,231 188,420 420,420zm0 -734c173,0 315,140 315,315 0,173 -140,315 -315,315 -173,0 -315,-140 -315,-315 0,-173 140,-315 315,-315z"/>
  <path class="fil9" d="M3857 2190c0,-144 -117,-262 -262,-262 -144,0 -262,117 -262,262 0,144 117,262 262,262 144,0 262,-117 262,-262zm-420 0c0,-87 70,-157 157,-157 87,0 157,70 157,157 0,87 -70,157 -157,157 -87,0 -157,-70 -157,-157z"/>
  <g id="_2751690748496">
   <circle class="fil9" cx="5938" cy="2749" r="955"/>
   <g>
    <path class="fil10" d="M6051 2439c287,-65 371,374 90,430 -282,56 -376,-365 -90,-430zm-529 -103l-173 -49c56,-90 203,-196 335,-244 662,-240 1284,504 873,1126 -169,257 -509,391 -821,301 -135,-39 -312,-145 -361,-236 110,-37 197,-16 317,-3 115,12 224,7 337,-9 105,-15 188,-38 276,-76 95,-41 163,-64 170,-191 -49,9 -106,58 -224,83 -170,35 -344,-46 -492,-117 -76,-37 -93,-36 -136,-179 33,14 59,35 92,54 35,21 62,36 98,55 63,35 137,66 210,89 250,77 335,-25 467,-92 -7,-75 -69,-236 -99,-299 -50,-105 -101,-135 -218,-181 -136,-52 -493,-148 -647,-152l-2 118zm-443 374c0,157 12,269 79,404 52,104 94,164 172,242 337,337 877,337 1214,0 254,-254 327,-661 172,-972 -139,-279 -422,-493 -741,-493 -267,0 -463,68 -645,251 -76,76 -118,136 -169,237 -41,82 -82,212 -82,332z"/>
    <path class="fil11" d="M5524 2218c154,4 511,99 647,152 117,45 168,75 218,181 30,63 92,224 99,299 -132,67 -217,169 -467,92 -73,-23 -147,-55 -210,-89 -36,-20 -62,-35 -98,-55 -33,-19 -59,-40 -92,-54 43,144 59,143 136,179 148,71 322,152 492,117 118,-25 176,-74 224,-83 -7,127 -75,150 -170,191 -88,38 -171,61 -276,76 -113,16 -222,21 -337,9 -120,-12 -207,-34 -317,3 49,91 226,197 361,236 312,90 652,-45 821,-301 411,-622 -212,-1366 -873,-1126 -132,48 -279,154 -335,244l173 49 2 -118z"/>
    <path class="fil11" d="M5946 2672c-23,-208 277,-224 303,-44 30,208 -282,232 -303,44zm106 -233c-286,65 -191,486 90,430 281,-56 196,-495 -90,-430z"/>
    <path class="fil10" d="M6088 2585c73,-38 149,41 80,73 -72,33 -152,-35 -80,-73zm-143 87c21,188 333,164 303,-44 -26,-180 -326,-164 -303,44z"/>
    <path class="fil11" d="M6088 2585c-73,38 8,106 80,73 70,-32 -6,-111 -80,-73z"/>
   </g>
  </g>
 </g>
</svg>
