<?xml version="1.0" encoding="UTF-8"?>
<!DOCTYPE svg PUBLIC "-//W3C//DTD SVG 1.1//EN" "http://www.w3.org/Graphics/SVG/1.1/DTD/svg11.dtd">
<!-- Creator: CorelDRAW 2017 -->
<svg xmlns="http://www.w3.org/2000/svg" xml:space="preserve" width="9.40646cm" height="5.29166cm" version="1.1" style="shape-rendering:geometricPrecision; text-rendering:geometricPrecision; image-rendering:optimizeQuality; fill-rule:evenodd; clip-rule:evenodd"
viewBox="0 0 9406 5292"
 xmlns:xlink="http://www.w3.org/1999/xlink"
 enable-background="new 0 0 512 512">
 <defs>
  <style type="text/css">
   <![CDATA[
    .fil3 {fill:#FEFEFE}
    .fil21 {fill:#070607}
    .fil16 {fill:#352213}
    .fil13 {fill:#477BA7}
    .fil10 {fill:#4A2E1B}
    .fil14 {fill:#543C2B}
    .fil17 {fill:#5C9BD3}
    .fil9 {fill:#654A34}
    .fil19 {fill:#755B46}
    .fil11 {fill:#A1B4BA}
    .fil7 {fill:#B4C5CD}
    .fil5 {fill:#BCE9FA}
    .fil8 {fill:#CAC1AE}
    .fil20 {fill:#D0D1D0}
    .fil18 {fill:#D3A610}
    .fil0 {fill:#E6E7E8}
    .fil15 {fill:#FACC3A}
    .fil6 {fill:#FDF2DE}
    .fil12 {fill:white}
    .fil4 {fill:#00A0E3;fill-rule:nonzero}
    .fil2 {fill:#373435;fill-opacity:0.031373}
    .fil1 {fill:#2B2A29;fill-opacity:0.101961}
   ]]>
  </style>
 </defs>
 <g id="Layer_x0020_1">
  <metadata id="CorelCorpID_0Corel-Layer"/>
  <polygon class="fil0" points="0,0 9406,0 9406,5292 0,5292 "/>
  <polygon class="fil1" points="4195,5292 4170,5292 3699,5292 3654,5292 1372,5292 1362,5292 658,5292 0,5292 0,4708 0,4527 0,4510 0,3635 0,3612 0,3606 0,3597 0,3583 3468,989 3429,1020 3390,1051 3352,1083 3315,1116 3290,1140 3476,1000 3557,943 3640,890 3726,840 3814,795 3905,754 3998,717 4093,685 4191,657 4290,634 4391,616 4494,603 4598,595 4703,592 4809,595 4913,603 5016,616 5117,634 5216,657 5313,685 5408,717 5501,754 5592,795 5681,840 5767,890 5850,943 5930,1000 6008,1061 6082,1126 6153,1194 6221,1265 6286,1340 6347,1417 6404,1498 6457,1581 6506,1667 6552,1756 6593,1847 6629,1940 6662,2035 6689,2133 6712,2232 6730,2333 6743,2436 6751,2540 6754,2646 6751,2751 6743,2856 6730,2959 6712,3060 6689,3159 6662,3256 6629,3352 6593,3445 6552,3536 6506,3625 6457,3711 6404,3794 6347,3874 6286,3952 6221,4027 6153,4098 6082,4166 6008,4230 5930,4291 5850,4349 5767,4402 5681,4451 5503,4552 5507,4550 5553,4530 5598,4509 5643,4487 5687,4463 5731,4439 4222,5292 "/>
  <g id="_2090251402272">
   <g>
    <path class="fil0" d="M3476 1000l80 -57 83 -53 86 -49 88 -45 91 -41 93 -37 95 -32 97 -28 99 -23 101 -18 103 -13 104 -8 106 -3 106 3 104 8 103 13 101 18 99 23 97 28 95 32 93 37 91 41 88 45 86 49 83 53 80 57 77 61 74 65 71 68 68 71 64 75 61 78 57 81 53 83 49 86 45 89 41 91 37 93 32 95 28 97 23 99 18 101 13 103 8 104 3 106 -3 106 -8 104 -13 103 -18 101 -23 99 -28 97 -32 95 -37 93 -41 91 -45 89 -49 86 -53 83 -57 81 -61 78 -64 75 -68 71 -71 68 -74 65 -77 61 -80 57 -83 53 -86 49c-291,158 -623,248 -977,248 -1133,0 -2051,-919 -2051,-2053 0,-673 324,-1271 824,-1646z"/>
    <path class="fil0" d="M3251 4096l12 -7 35 34 36 33 37 33 37 32 38 31 39 30 40 29 40 28 41 27 42 26 42 25 43 24 44 23 44 22 45 21 45 20 46 19 47 18 47 17 48 15 48 14 49 13 49 12 50 11 50 10 50 8 51 7 51 6 52 5 52 3 52 2 53 1 -23 13c-558,-6 -1063,-236 -1429,-603z"/>
    <path class="fil0" d="M3197 1252l65 -49 -34 35 -33 36 -32 37 -32 37 -31 38 -30 39 -29 40 -28 40 -27 41 -26 42 -25 42 -24 43 -23 44 -22 44 -21 45 -20 45 -19 46 -18 47 -17 47 -15 48 -14 48 -13 49 -12 49 -11 50 -10 50 -8 50 -7 51 -6 51 -5 52 -3 52 -2 52 -1 53 -13 9 0 -9c0,-538 207,-1028 545,-1394z"/>
    <path class="fil0" d="M3299 1150l185 -138 -39 30 -38 31 -37 32 -37 33 -36 33 -35 34 -65 49c33,-35 66,-70 101,-103z"/>
    <path class="fil0" d="M2653 2655l13 -9 1 53 2 52 3 52 5 52 6 51 7 51 8 50 10 50 11 50 12 49 13 49 14 48 15 48 17 47 18 47 19 46 20 45 21 45 22 44 23 44 24 43 25 42 26 42 27 41 28 40 29 40 30 39 31 38 32 37 32 37 33 36 34 35 -12 7c-368,-369 -596,-878 -598,-1440z"/>
    <path class="fil0" d="M4680 4699l23 -13 53 -1 52 -2 52 -3 52 -5 51 -6 51 -7 50 -8 50 -10 50 -11 49 -12 49 -13 48 -14 48 -15 47 -17 47 -18 46 -19 45 -20 45 -21 44 -22 44 -23 43 -24 -217 123c-245,104 -514,161 -797,161 -8,0 -15,0 -23,0z"/>
   </g>
   <g>
    <path class="fil0" d="M3289 1140l187 -140 80 -57 83 -53 86 -49 88 -45 91 -41 93 -37 95 -32 97 -28 99 -23 101 -18 103 -13 104 -8 106 -3 106 3 104 8 103 13 101 18 99 23 97 28 95 32 93 37 91 41 88 45 86 49 83 53 80 57 77 61 74 65 71 68 68 71 64 75 61 78 57 81 53 83 49 86 45 89 41 91 37 93 32 95 28 97 23 99 18 101 13 103 8 104 3 106 -3 106 -8 104 -13 103 -18 101 -23 99 -28 97 -32 95 -37 93 -41 91 -45 89 -49 86 -53 83 -57 81 -61 78 -64 75 -68 71 -71 68 -74 65 -77 61 -80 57 -83 53 -86 49 -178 100c-246,104 -516,161 -800,161 -570,0 -1086,-231 -1460,-605 -374,-374 -605,-891 -605,-1462 0,-571 231,-1088 605,-1462 15,-15 30,-30 45,-44zm2855 63c-369,-369 -878,-598 -1440,-598 -563,0 -1072,228 -1440,598 -369,369 -597,879 -597,1442 0,563 228,1073 597,1442 369,369 878,598 1440,598 563,0 1072,-228 1440,-598 369,-369 597,-879 597,-1442 0,-563 -228,-1073 -597,-1442z"/>
    <path class="fil0" d="M3239 4103l23 -15c12,12 23,23 35,34 12,11 24,22 36,33 12,11 24,22 37,33 12,11 25,21 37,32 13,10 25,21 38,31 13,10 26,20 39,30 13,10 26,19 40,29 13,9 27,19 40,28 14,9 27,18 41,27 14,9 28,18 42,26 14,9 28,17 42,25 14,8 29,16 43,24 14,8 29,16 44,23 15,8 29,15 44,22 15,7 30,14 45,21 15,7 30,13 45,20 15,6 31,13 46,19 15,6 31,12 47,18 16,6 31,11 47,17 16,5 32,11 48,15 16,5 32,10 48,14 16,5 32,9 49,13 16,4 33,8 49,12 16,4 33,7 50,11 17,3 33,7 50,10 17,3 34,6 50,8 17,3 34,5 51,7 17,2 34,4 51,6 17,2 34,3 52,5 17,1 35,2 52,3 17,1 35,2 52,2 17,0 35,1 53,1l-46 27c-552,-12 -1050,-241 -1414,-605l-4 -4z"/>
    <path class="fil0" d="M3143 1293l120 -90c-12,12 -23,23 -34,35 -11,12 -22,24 -33,36 -11,12 -22,24 -32,37 -11,12 -21,25 -32,37 -10,13 -21,25 -31,38 -10,13 -20,26 -30,39 -10,13 -19,26 -29,40 -9,13 -19,27 -28,40 -9,14 -18,27 -27,41 -9,14 -18,28 -26,42 -9,14 -17,28 -25,42 -8,14 -16,29 -24,43 -8,14 -16,29 -23,44 -7,15 -15,29 -22,44 -7,15 -14,30 -21,45 -7,15 -13,30 -20,45 -6,15 -13,31 -19,46 -6,15 -12,31 -18,47 -6,16 -11,31 -17,47 -5,16 -10,32 -15,48 -5,16 -10,32 -14,48 -5,16 -9,32 -13,49 -4,16 -8,33 -12,49 -4,16 -7,33 -11,50 -3,17 -7,33 -10,50 -3,17 -6,34 -8,50 -3,17 -5,34 -7,51 -2,17 -4,34 -6,51 -2,17 -3,34 -5,52 -1,17 -2,35 -3,52 -1,17 -2,35 -2,52 0,18 -1,35 -1,53l-27 19 0 -19c0,-517 190,-990 503,-1353z"/>
    <path class="fil0" d="M3220 1209l265 -198c-13,10 -26,20 -39,30 -13,10 -26,20 -38,31 -13,10 -25,21 -37,32 -12,11 -24,22 -37,33 -12,11 -24,22 -36,33 -12,11 -23,23 -35,34l-120 90c25,-29 51,-57 77,-84z"/>
    <path class="fil0" d="M3468 989l-39 30c13,-10 26,-20 39,-30zm-39 30l-39 31c13,-11 26,-21 39,-31zm-39 31l-38 32c12,-11 25,-22 38,-32zm-38 32l-37 33c12,-11 25,-22 37,-33zm-37 33l-36 34c12,-11 24,-23 36,-34zm-36 34l-35 35c12,-12 24,-23 35,-35z"/>
    <path class="fil0" d="M3244 1184l-35 35c11,-12 23,-24 35,-35zm-35 35l-34 36c11,-12 22,-24 34,-36zm-34 36l-33 37c11,-13 22,-25 33,-37zm-33 37l-32 38c11,-13 21,-25 32,-38zm-32 38l-31 39c10,-13 21,-26 31,-39zm-31 39l-30 39c10,-13 20,-26 30,-39zm-30 39l-29 40c10,-14 19,-27 29,-40zm-29 40l-28 41c9,-14 19,-27 28,-41zm-28 41l-27 42c9,-14 18,-28 27,-42zm-27 42l-26 42c9,-14 17,-28 26,-42zm-26 42l-25 43c8,-14 17,-29 25,-43zm-25 43l-24 44c8,-15 16,-29 24,-44zm-24 44l-23 44c8,-15 15,-30 23,-44zm-23 44l-22 45c7,-15 15,-30 22,-45zm-22 45l-21 46c7,-15 14,-30 21,-46zm-21 46l-20 46c7,-15 13,-31 20,-46zm-20 46l-19 47c6,-16 13,-31 19,-47zm-19 47l-18 47c6,-16 12,-32 18,-47zm-18 47l-17 48c5,-16 11,-32 17,-48zm-17 48l-16 48c5,-16 10,-32 16,-48zm-16 48l-15 49c5,-16 9,-33 15,-49zm-15 49l-13 49c4,-17 9,-33 13,-49zm-13 49l-12 50c4,-17 8,-33 12,-50zm-12 50l-11 50c3,-17 7,-34 11,-50zm-11 50l-10 51c3,-17 6,-34 10,-51zm-10 51l-8 51c3,-17 5,-34 8,-51zm-8 51l-7 52c2,-17 5,-34 7,-52zm-7 52l-6 52c2,-17 4,-35 6,-52zm-6 52l-5 52c1,-18 3,-35 5,-52zm-5 52l-3 53c1,-18 2,-35 3,-53zm-3 53l-2 53c0,-18 1,-35 2,-53zm-2 53l-1 53c0,-18 0,-36 1,-53z"/>
    <path class="fil0" d="M2639 2665l27 -19c0,18 0,35 1,53 0,18 1,35 2,52 1,17 2,35 3,52 1,17 3,34 5,52 2,17 4,34 6,51 2,17 5,34 7,51 3,17 5,34 8,50 3,17 6,33 10,50 3,17 7,33 11,50 4,16 8,33 12,49 4,16 9,33 13,49 5,16 9,32 14,48 5,16 10,32 15,48 5,16 11,32 17,47 6,16 12,31 18,47 6,15 12,31 19,46 6,15 13,30 20,45 7,15 14,30 21,45 7,15 15,30 22,44 7,15 15,29 23,44 8,14 16,29 24,43 8,14 17,28 25,42 9,14 17,28 26,42 9,14 18,28 27,41 9,14 18,27 28,40 9,13 19,27 29,40 10,13 20,26 30,39 10,13 20,26 31,38 10,13 21,25 32,37 11,12 22,25 32,37 11,12 22,24 33,36 11,12 23,23 34,35l-23 15c-367,-370 -595,-877 -600,-1438z"/>
    <path class="fil0" d="M2639 2646l1 53c0,-18 -1,-36 -1,-53zm1 53l2 53c-1,-18 -2,-35 -2,-53zm2 53l3 53c-1,-18 -2,-35 -3,-53zm3 53l5 52c-2,-17 -3,-35 -5,-52zm5 52l6 52c-2,-17 -4,-35 -6,-52zm6 52l7 52c-3,-17 -5,-34 -7,-52zm7 52l8 51c-3,-17 -6,-34 -8,-51zm8 51l10 51c-3,-17 -7,-34 -10,-51zm10 51l11 50c-4,-17 -7,-33 -11,-50zm11 50l12 50c-4,-17 -8,-33 -12,-50zm12 50l13 49c-5,-16 -9,-33 -13,-49zm13 49l15 49c-5,-16 -10,-32 -15,-49zm15 49l16 48c-5,-16 -11,-32 -16,-48zm16 48l17 48c-6,-16 -11,-32 -17,-48zm17 48l18 47c-6,-16 -12,-31 -18,-47zm18 47l19 47c-7,-15 -13,-31 -19,-47zm19 47l20 46c-7,-15 -14,-31 -20,-46zm20 46l21 46c-7,-15 -14,-30 -21,-46zm21 46l22 45c-8,-15 -15,-30 -22,-45zm22 45l23 44c-8,-15 -16,-29 -23,-44zm23 44l24 44c-8,-14 -16,-29 -24,-44zm24 44l25 43c-9,-14 -17,-29 -25,-43zm25 43l26 42c-9,-14 -18,-28 -26,-42zm26 42l27 42c-9,-14 -18,-28 -27,-42zm27 42l28 41c-10,-14 -19,-27 -28,-41zm28 41l29 40c-10,-13 -20,-27 -29,-40zm29 40l30 39c-10,-13 -20,-26 -30,-39zm30 39l31 39c-11,-13 -21,-26 -31,-39zm31 39l32 38c-11,-13 -21,-25 -32,-38zm32 38l33 37c-11,-12 -22,-25 -33,-37zm33 37l34 36c-11,-12 -23,-24 -34,-36zm34 36l35 35c-12,-12 -23,-24 -35,-35z"/>
    <path class="fil0" d="M4657 4712l46 -27c18,0 35,0 53,-1 17,0 35,-1 52,-2 17,-1 35,-2 52,-3 17,-1 34,-3 52,-5 17,-2 34,-4 51,-6 17,-2 34,-5 51,-7 17,-3 34,-5 50,-8 17,-3 33,-6 50,-10 17,-3 33,-7 50,-11 16,-4 33,-8 49,-12 16,-4 32,-9 49,-13 16,-5 32,-9 48,-14 16,-5 32,-10 48,-15 16,-5 31,-11 47,-17 16,-6 31,-12 47,-18 15,-6 31,-12 46,-19 15,-6 30,-13 45,-20 15,-7 30,-14 45,-21 15,-7 30,-15 44,-22 15,-8 29,-15 44,-23l19 -11 -279 158c-222,82 -462,126 -712,126 -15,0 -31,0 -46,-1z"/>
    <path class="fil0" d="M4703 4713l53 -1c-18,0 -35,1 -53,1zm53 -1l53 -2c-18,1 -35,2 -53,2zm53 -2l53 -3c-17,1 -35,2 -53,3zm53 -3l52 -5c-17,2 -35,3 -52,5zm52 -5l52 -6c-17,2 -34,4 -52,6zm52 -6l51 -7c-17,3 -34,5 -51,7zm51 -7l51 -8c-17,3 -34,6 -51,8zm51 -8l51 -10c-17,3 -34,7 -51,10zm51 -10l50 -11c-17,4 -33,8 -50,11zm50 -11l50 -12c-17,4 -33,8 -50,12zm50 -12l49 -13c-16,5 -33,9 -49,13zm49 -13l49 -15c-16,5 -32,10 -49,15zm49 -15l48 -16c-16,5 -32,11 -48,16zm48 -16l48 -17c-16,6 -32,11 -48,17zm48 -17l47 -18c-16,6 -31,12 -47,18zm47 -18l47 -19c-15,7 -31,13 -47,19zm47 -19l46 -20c-15,7 -31,14 -46,20zm46 -20l45 -21c-15,7 -30,14 -45,21zm45 -21l45 -22c-15,8 -30,15 -45,22zm45 -22l44 -23c-15,8 -29,16 -44,23zm44 -23l44 -24 -26 15 -17 10z"/>
    <path class="fil0" d="M3244 4107l35 35c-12,-11 -24,-23 -35,-35zm35 35l36 34c-12,-11 -24,-22 -36,-34zm36 34l37 33c-12,-11 -25,-22 -37,-33zm37 33l38 32c-13,-11 -25,-21 -38,-32zm38 32l39 31c-13,-10 -26,-21 -39,-31zm39 31l39 30c-13,-10 -26,-20 -39,-30zm39 30l40 29c-13,-10 -27,-19 -40,-29zm40 29l41 28c-14,-9 -27,-19 -41,-28zm41 28l42 27c-14,-9 -28,-18 -42,-27zm42 27l42 26c-14,-9 -28,-17 -42,-26zm42 26l43 25c-14,-8 -29,-17 -43,-25zm43 25l44 24c-15,-8 -29,-16 -44,-24zm44 24l44 23c-15,-8 -30,-15 -44,-23zm44 23l45 22c-15,-7 -30,-15 -45,-22zm45 22l45 21c-15,-7 -30,-14 -45,-21zm45 21l46 20c-15,-7 -31,-13 -46,-20zm46 20l47 19c-16,-6 -31,-13 -47,-19zm47 19l47 18c-16,-6 -32,-12 -47,-18zm47 18l48 17c-16,-5 -32,-11 -48,-17zm48 17l48 16c-16,-5 -32,-10 -48,-16zm48 16l49 15c-16,-5 -33,-10 -49,-15zm49 15l49 13c-17,-4 -33,-9 -49,-13zm49 13l50 12c-17,-4 -33,-8 -50,-12zm50 12l50 11c-17,-3 -34,-7 -50,-11zm50 11l51 10c-17,-3 -34,-6 -51,-10zm51 10l51 8c-17,-3 -34,-5 -51,-8zm51 8l51 7c-17,-2 -34,-5 -51,-7zm51 7l52 6c-17,-2 -35,-4 -52,-6zm52 6l52 5c-17,-1 -35,-3 -52,-5zm52 5l53 3c-18,-1 -35,-2 -53,-3zm53 3l53 2c-18,0 -35,-1 -53,-2zm53 2l53 1c-18,0 -36,0 -53,-1z"/>
   </g>
  </g>
  <path class="fil2" d="M559 4639c18,28 30,53 41,81 8,18 13,48 53,48 13,0 28,-3 43,-13 18,-8 28,-23 36,-43l15 -53 38 -18 3 3c-5,20 -8,41 -8,53 0,46 38,61 69,61 18,0 33,-10 33,-25 0,-20 -10,-58 -20,-89 18,-18 36,-36 56,-51l3 3c10,38 13,76 13,102 0,25 -10,51 -20,69 -18,36 -51,64 -91,64 -30,0 -64,-15 -86,-43l-3 0c-20,28 -56,51 -109,51l-18 0c-3,36 -10,61 -23,84 -33,64 -127,107 -213,107 -124,0 -185,-71 -185,-168 0,-58 20,-114 48,-152l25 10c-18,36 -30,69 -30,102 0,89 71,132 155,132 76,0 173,-48 191,-107 -8,-64 -30,-91 -66,-150 10,-18 25,-38 43,-58l3 0 0 0 0 0 0 0 0 0 0 0 0 0 0 0 8 3 0 0zm1423 -338c25,15 51,36 76,58 -13,20 -30,38 -53,53 -25,-20 -51,-38 -76,-56 18,-20 36,-38 51,-56l0 0 0 0 0 0 0 0 0 0 0 0 0 0 3 0 0 0zm13 244c-43,0 -76,28 -76,48 0,43 84,58 185,58 -13,-51 -56,-107 -109,-107l0 0 0 0 0 0 0 0 0 0 0 0zm-94 236c53,0 102,-3 140,-10 41,-10 76,-30 76,-46 0,-5 0,-8 -3,-13 -23,3 -48,3 -71,3 -74,0 -130,-18 -152,-58 -5,-13 -10,-25 -10,-41 0,-41 18,-81 48,-107 25,-23 53,-36 81,-36 51,0 94,41 122,107 15,36 25,76 25,130 0,36 -10,64 -30,86 -41,38 -114,53 -229,53l-51 0 0 0 -13 0c-28,0 -48,-5 -64,-18l-3 0c0,8 3,13 3,18 0,25 -8,58 -25,84 -51,76 -104,109 -152,109 -48,0 -107,-18 -160,-43l10 -18c18,8 41,13 74,13 86,0 198,-84 211,-163 -3,-8 -10,-15 -18,-25 -25,-30 -41,-56 -56,-81 13,-25 25,-46 36,-64l5 0c36,74 69,117 142,117l13 0 0 0 53 0 0 0 0 0 -3 3 0 0zm-368 79c5,-36 8,-74 8,-109l0 -53c0,-99 -13,-244 -23,-338 18,-20 43,-43 64,-58l5 3c13,119 18,257 18,384 0,33 -3,66 -5,89 -3,30 -20,53 -56,89l-8 -3 0 0 0 0 0 0 0 0 0 0 0 0 0 0 -3 -3 0 0zm-381 -158c3,46 25,84 104,84 51,0 91,-13 137,-36 8,-3 13,-8 13,-13 0,-30 -23,-69 -61,-104 -36,-33 -84,-64 -130,-81 -15,-8 -20,-13 -20,-20 0,-13 18,-41 33,-61l5 0c51,28 109,69 152,112 38,41 64,84 64,130 0,33 -10,66 -28,97 -56,28 -117,51 -178,51 -74,0 -122,-36 -122,-114 0,-8 0,-23 3,-41l25 0 0 0 0 0 0 0 0 0 0 0 0 0 0 0 3 -3 0 0zm-132 -132l46 74c18,28 33,56 33,104l0 61c0,48 -30,99 -81,152 -38,36 -74,51 -104,51 -48,0 -102,-15 -163,-43l8 -18c20,5 43,10 71,10 89,0 180,-66 224,-147 5,-10 8,-18 8,-23 0,-10 -5,-20 -10,-28 -23,-43 -48,-84 -76,-119 15,-23 30,-46 46,-69l3 0 0 0 0 0 0 0 0 0 0 0 0 0 -3 -5 0 0z"/>
  <g id="_2090251400256">
   <ellipse class="fil3" cx="4703" cy="2646" rx="2051" ry="2053"/>
   <path class="fil4" d="M4703 579c570,0 1086,231 1460,605 374,374 605,891 605,1462 0,571 -231,1088 -605,1462 -374,374 -890,605 -1460,605 -570,0 -1086,-231 -1460,-605 -374,-374 -605,-891 -605,-1462 0,-571 231,-1088 605,-1462 374,-374 890,-605 1460,-605zm1441 625c-369,-369 -878,-597 -1441,-597 -563,0 -1072,228 -1441,597 -369,369 -597,879 -597,1442 0,563 228,1073 597,1442 369,369 878,597 1441,597 563,0 1072,-228 1441,-597 369,-369 597,-879 597,-1442 0,-563 -228,-1073 -597,-1442z"/>
  </g>
  <g id="_2090251439488">
   <path class="fil5" d="M3226 3401c7,3 9,-4 9,22l0 72c-3,10 1,4 -8,8 -8,-13 -6,-89 -2,-100 0,-1 1,-2 2,-2zm-23 31c1,13 2,69 -1,78 -3,11 -11,19 -23,20 -5,1 -15,0 -19,-2 -12,-5 -8,-3 -11,-15 21,5 43,18 41,-15 -56,22 -57,-58 -27,-67 12,-4 12,0 21,1 21,2 -2,-2 18,-1zm210 13c0,15 0,13 18,18 65,20 -28,73 -32,19 20,1 19,26 42,6 -3,-24 -7,-5 -40,-28 -2,-39 44,-40 52,-7 -27,-3 -14,-21 -40,-8zm-72 0c1,29 51,11 40,44 -6,19 -52,24 -55,-8 21,1 19,26 42,6 -2,-29 -48,-8 -39,-42 5,-18 45,-26 51,6 -25,-2 -3,-1 -18,-9 -7,-4 -17,-3 -22,2zm-87 6c3,-22 30,-27 45,-15 14,11 9,47 10,68l-7 -2c-27,-6 -23,14 -49,-8l-1 -19c14,-13 16,-14 43,-15 -2,-38 -28,-10 -41,-9zm2763 -785l-63 64c-21,21 -41,41 -63,63 -41,41 -83,84 -125,125 -84,83 -164,166 -250,249 -10,17 -36,11 -58,11l-458 0c-91,0 -1533,4 -1570,-1l-1 -131c-15,9 -33,31 -53,50 -22,21 -34,33 -53,50 -6,-27 4,-42 -6,-53 -1,18 -9,23 -26,40 -1,1 -1,1 -2,2 -1,1 -1,1 -2,2 -1,1 -1,1 -2,2l-159 159c-8,7 -8,6 -15,14 -10,11 -18,19 -30,27l1 269c53,6 959,1 1040,1 560,0 1133,4 1692,0 25,0 40,5 55,-10l161 -161c27,-27 503,-509 521,-518l0 -275 -451 0c-21,0 -48,3 -58,-5l-27 25z"/>
   <path class="fil6" d="M4149 2365c-7,-12 -7,-63 0,-73 10,3 9,-10 9,35 0,52 3,33 -9,38zm92 -71c45,-16 59,56 23,70 -44,17 -63,-56 -23,-70zm-164 98c-10,-3 -5,2 -8,-7l1 -92c35,7 18,-4 38,1 30,6 35,92 -27,67 -1,11 2,23 -4,32zm701 -27c-2,-5 -5,5 -1,-13l24 -62c8,-21 4,-16 13,-22 14,5 4,-4 11,9l32 87c-21,0 -12,-4 -22,-25l-39 1c-16,32 0,20 -18,25zm93 -96c43,-1 70,3 70,48 0,45 -28,49 -70,48l0 -96zm-190 81c-7,32 -68,18 -56,-32 4,-17 19,-28 38,-24 18,4 20,19 21,38 -22,3 -33,-2 -47,4 4,34 26,16 44,15zm-240 -80c59,-18 66,83 23,95 -58,16 -68,-82 -23,-95zm-266 24c34,5 21,-4 34,2 -6,22 -19,-2 -22,25 -1,7 0,18 0,25l-4 20c-11,-5 -8,10 -9,-16l0 -56zm341 73c-13,-5 -6,-91 -5,-97 31,-1 20,32 47,76 6,-13 12,-29 18,-43 14,-35 7,-32 26,-33 6,11 4,17 4,48 0,8 0,17 0,25l-4 23c-15,-6 -6,11 -10,-16 -1,-9 3,-41 0,-59l-28 68c-4,6 -1,2 -5,7 -13,-5 -6,0 -20,-32 -5,-13 -9,-25 -18,-35 0,15 7,62 -6,68zm175 -92c6,-5 -1,-2 8,-5l63 3c1,-1 2,1 3,2 -11,7 -17,5 -30,5 -1,15 -1,30 -1,46 0,7 0,15 0,22 0,3 0,8 -1,10 -1,7 -1,5 -4,9 -11,-5 -9,7 -9,-19l0 -66c-12,-2 -21,1 -31,-6zm-705 31c-3,-55 61,-45 65,-9 -29,1 -2,-14 -29,-17 -13,-2 -26,3 -24,16 2,13 15,14 28,18 42,16 25,52 -7,53 -16,1 -33,-8 -35,-18 -5,-22 -1,-4 3,-11 16,8 2,1 12,11 11,12 23,9 38,2 4,-33 -11,-14 -51,-45zm-241 -166c7,-14 0,-2 8,-13 6,-9 1,-1 7,-8 7,-7 10,-10 17,-16 12,-11 21,-21 30,-30l233 -233c5,-5 9,-9 14,-14l154 -154c17,-18 20,-26 31,-27 4,-14 6,-12 18,-23 6,-5 12,-12 18,-18 10,-11 25,-25 36,-36 12,-11 26,-27 38,-38 17,-16 31,-24 36,-39 -34,6 -4,23 -50,22l-204 0c-48,0 -42,-7 -67,19l-109 109c0,0 -5,6 -5,6l-17 23c-7,7 -6,0 -16,16 0,1 -1,2 -1,2 0,0 -5,7 -6,8 0,1 -1,1 -2,2 -26,30 6,7 -36,35l-16 12c-32,21 -5,10 -40,36l-6 5c-4,3 -5,4 -8,6 -25,18 -9,23 -31,36 -6,4 -4,1 -10,7 -30,29 -10,5 -36,39 -8,10 -10,14 -23,15 -4,31 0,8 -30,43 -15,19 -4,-3 -31,23l-49 50c-26,25 -14,9 -29,22 -12,10 -5,9 -13,22 -8,14 -9,6 -24,23l-77 81c-16,15 -27,-8 -22,97 3,51 -8,50 10,75 -3,3 6,8 -6,0l1 10c9,-1 1,-3 6,1l-5 14c-11,23 -6,123 -6,151 19,12 15,-3 14,11 21,-12 95,-7 125,-7l386 0c339,-3 691,3 1030,0 86,-1 172,1 258,0 84,-1 176,5 259,0 8,-44 1,-156 2,-208 0,-35 0,-69 0,-104 0,-24 0,-21 14,-36l181 -180c17,-16 34,-36 49,-51 35,-35 71,-66 106,-101l258 -258c12,-12 38,-42 50,-49 -5,-5 5,-5 -28,-4l-197 -1 -2 -41c-33,-4 -138,-1 -184,-2 -40,0 -48,-5 -49,14 21,-3 2,-5 27,-8l200 2c4,30 3,29 -5,36 -6,12 -558,563 -619,623 -7,7 -31,36 -42,38l-216 4c-2,-20 -5,-32 9,-45 9,-9 17,-14 26,-24 50,-49 96,-100 150,-151l152 -152c9,-10 41,-43 50,-49 6,-13 102,-105 121,-124 12,-12 19,-19 30,-31l69 -71c10,-9 15,-10 23,-22 -12,-1 -8,2 -21,2l-358 -2c-3,1 -8,3 -23,3 -2,-32 1,-34 -9,-42 0,15 2,29 -7,38 -5,11 -39,39 -48,49l-99 101c-15,14 -32,31 -48,48 -68,71 -134,133 -196,197 -64,67 -129,129 -199,199 -83,82 -53,70 -126,70 -33,0 -67,0 -100,0 -30,0 -73,11 -55,-33 5,-12 20,-25 32,-36l93 -93c78,-78 169,-173 247,-247 22,-21 45,-42 63,-63 6,-7 52,-56 62,-57 5,-14 5,-13 16,-23l105 -103c11,-10 10,-3 15,-18 -22,3 -17,11 -37,13 -27,2 -30,-3 -71,4 -32,5 -90,8 -117,-1 -21,-7 -121,-4 -146,-3 -5,12 -3,10 -15,15 4,-7 14,-54 -7,-58 1,25 5,30 -9,46 -42,46 -130,130 -177,178 -63,65 -139,140 -202,203l-154 154c-17,18 -31,29 -50,50 -14,15 -61,70 -81,72l-200 -1c-13,-5 -8,-29 -3,-35z"/>
   <path class="fil7" d="M4020 3012c4,30 -14,30 -25,50l29 4c-10,6 -22,4 -40,4 6,-23 36,-32 27,-54 -11,-12 -18,6 -29,7 7,-22 19,-23 38,-11zm-102 -67c60,-21 68,79 28,93 -60,22 -72,-78 -28,-93zm-113 11c-31,-6 -23,8 -31,-8 10,-8 24,-4 40,-4 6,0 16,-1 22,0 17,1 8,0 14,5 -6,12 6,3 -31,8 0,14 0,28 0,43 0,16 3,30 -5,42 -11,-5 -8,4 -9,-20l1 -64zm-378 79l3 13 1 131c37,5 1480,1 1570,1l458 0c22,0 49,6 58,-11 -13,0 -3,4 -11,-3 4,-42 1,-180 1,-240 0,-13 -5,-57 3,-65l-11 -7 -53 0 -271 -1 -390 0 -29 0 -499 0 -273 0 -111 0 -102 1 -205 -1 73 5c-61,4 -44,-6 -96,12l8 5c-20,11 -23,20 -29,26 -4,4 -5,4 -10,8 -10,8 -10,13 -16,19l-20 16c-8,8 -3,4 -8,10 -20,27 -37,18 -38,51 -1,31 3,23 -5,30z"/>
   <path class="fil8" d="M5499 2503c14,-6 107,-101 124,-119l362 -364c29,-29 151,-155 163,-158 6,-20 11,-4 12,-36l-1 -311c-12,7 -37,36 -50,49l-258 258c-35,36 -72,66 -106,101 -15,16 -32,36 -49,51l-181 180c-15,15 -14,12 -14,36 0,35 0,69 0,104 -1,52 6,164 -2,208z"/>
   <path class="fil9" d="M3899 2665c3,-23 16,-32 39,-33 0,2 0,3 -1,5l-6 17c0,1 -1,1 -2,2l-16 20c7,12 6,7 14,14 -5,5 -4,4 -4,14 -9,-17 -13,-11 -14,-15 -1,-2 -2,-2 -4,-2 0,37 11,24 -3,57l8 6c1,1 2,1 2,2 8,10 3,9 2,14 -19,-3 -9,-7 -23,-11 -10,8 -7,5 -11,16l-2 4c-7,14 -4,-4 -6,9l26 2 2 24c-7,4 -7,7 -17,9 -4,-5 -9,-14 -12,-20 -9,-12 -11,2 -7,-21l-19 9c2,-12 8,-26 5,-36 -4,-13 -11,-7 -11,-26l13 12c-2,-28 10,-17 13,-30 3,-14 -1,0 -6,-25l-1 -9 39 -6zm903 -143c8,-6 77,2 96,2 -7,6 -24,-3 -33,11l-3 10c11,12 18,8 26,14 -27,34 -13,34 -7,37l-29 13c-9,2 -18,-13 -18,-13 0,-1 -1,-2 -2,-2 -17,5 -7,15 -57,12 -50,-57 -21,-28 -37,-53 -7,-11 -18,-13 -18,-34 27,-1 54,-1 81,1zm-916 -2l47 1c18,5 30,3 49,4 -6,5 -16,-1 -26,5l-10 17 16 10c10,4 1,-3 10,4 -7,9 -11,17 -17,29l7 8c2,4 6,0 -1,3 -30,12 -21,16 -31,10l-10 -12c0,-1 -1,-2 -2,-2 -23,6 4,8 -24,10 -46,4 -28,6 -49,-18 -14,-15 -9,-2 -16,-20 -11,-30 -24,-21 -23,-46 20,-1 63,2 81,-1zm1614 -17c-82,5 -175,-1 -259,0 -86,1 -172,0 -258,0 -339,3 -692,-3 -1030,0l-386 0c-30,0 -104,-5 -125,7 -2,12 -8,6 -7,35l26 -3c-4,-19 -8,-3 0,-18 12,0 16,-3 28,-3 9,0 18,2 29,2l50 -2c109,-9 70,10 97,18 5,-13 -16,-14 10,-18 6,-1 28,1 36,0 21,-1 44,-6 67,4 14,6 -2,-2 6,5l4 4c11,10 19,12 22,42 3,29 5,13 11,30 6,16 -4,15 2,30 23,-4 14,-16 10,-33 44,10 -8,46 -8,47 4,13 3,3 16,14l-1 25 11 1c8,2 4,0 11,3l-1 16c-20,2 1,-5 -17,-2 0,0 -21,5 -22,5 0,4 7,18 -3,30 -17,-8 -7,-14 -14,-25 -1,3 -12,16 -15,22 3,1 32,4 27,18 7,-8 -10,-5 13,-5 1,0 12,3 12,3 10,6 7,8 7,21 0,23 41,46 -21,67 -11,-13 -37,-25 -55,-22 1,12 4,3 7,18 3,15 5,3 -4,16l102 -1 -1 -26c15,2 -9,-8 4,5 5,5 -5,5 7,4 19,-1 3,-5 8,-14l26 -8c5,-18 -1,-20 24,-22l7 19 24 0c2,29 -3,14 7,31 3,5 3,1 5,11l273 0 -4 -11c-24,0 -28,-5 -38,-16 -1,-1 -1,-1 -2,-2 -1,-1 -1,-1 -2,-2l-4 -4c0,0 -2,-1 -2,-2 7,-14 15,-18 1,-28 -12,4 -1,0 -7,7 -9,12 11,2 -9,10 -7,-15 -10,-18 -6,-19l6 -2c0,0 2,-1 2,-1 -3,-29 -20,-20 -22,-37 -1,-9 -8,4 1,-5l-1 -69c-10,16 -2,6 -16,14 1,16 -2,34 -11,45 -15,18 -2,5 -12,21 -10,0 -36,6 -46,3 4,-17 9,-1 13,-11 1,-1 2,0 3,-1 -9,-6 -14,-2 -23,-7 -1,-11 0,-5 1,-12 0,-1 1,-4 1,-5 2,-11 -3,-6 3,-16 11,-19 10,3 29,-14 -2,-15 2,-4 -6,-11l-7 -5c0,-1 -2,-1 -3,-2 6,-14 1,-3 8,-13l14 -17c7,-7 -1,-4 12,-9 1,23 6,23 -8,31 13,6 7,2 8,2 3,-1 10,-7 9,-15 0,-1 -1,-2 -1,-2 0,-1 -1,-2 -1,-3 0,-1 -3,-5 -4,-6 10,0 18,2 24,-4 15,9 2,-8 14,10 10,-16 -7,-4 22,-6 1,0 6,-1 7,-2 -12,-17 -1,-25 2,-32 0,-1 1,-2 1,-2 4,-9 -6,0 6,-10 -12,-12 -17,-2 -15,-16 2,-13 13,-7 20,-3 -1,-28 23,-17 25,-50 0,-7 -4,3 0,-6l21 -4c3,3 3,3 6,7l6 10c14,-13 3,-12 23,-12 9,0 11,2 18,-1 18,-6 -2,-3 11,-7 10,7 4,3 14,5l16 4c1,0 2,1 3,1 -14,6 6,-3 -11,3 -10,3 -5,1 -11,7 -1,1 -1,1 -2,2l-4 4c-10,10 -8,-3 -7,14 27,-6 8,-15 32,-14 0,0 13,2 16,2 19,-29 -21,-22 83,-18 19,1 51,-5 78,-4 14,0 27,4 39,4l82 -6c43,2 46,15 48,16 12,10 17,12 20,37 4,29 0,10 10,29 8,16 -4,21 8,35 11,-5 10,0 11,-14 0,-3 -3,-15 -4,-19 13,3 18,5 15,22 -3,18 -12,7 -26,18 31,-3 35,0 43,25 14,3 21,0 36,-3 2,-20 13,-30 32,-33 8,9 5,-2 7,17l7 -28c1,0 0,1 4,0 9,-3 -9,5 5,-2 18,-10 -14,1 16,-2 1,0 6,-1 6,-1l4 0c8,-1 -1,5 8,-1 3,-33 -21,-23 9,-76l8 -13c4,0 19,-1 22,0 14,3 14,11 16,9 1,-1 2,2 4,2 3,-16 -4,-1 5,-9 8,-7 16,-1 22,-1l173 -2 21 -4 8 25c0,1 1,3 1,2 0,0 0,2 1,2 3,-15 -2,-25 18,-25 38,-1 20,-4 33,-8l30 8c1,-1 2,1 3,1 0,0 -35,6 -34,29 14,-3 12,-5 20,-15l29 3 3 -11c4,-10 -5,-2 6,-8 6,-4 20,-3 27,-3 85,7 45,0 100,-1 52,-1 51,-5 68,21 6,-8 -4,-16 18,-21l0 24c0,1 -1,2 -1,3 -5,11 -6,4 -6,27 0,27 3,3 7,22 1,3 2,39 1,41l-2 6c0,0 0,1 0,2 0,1 0,7 0,7 0,10 0,13 2,24 -1,-1 -2,-1 -3,-2 -1,0 -2,-1 -3,-2l-38 -5c0,-14 2,-12 -3,-23l-4 -6c-2,-3 -2,-2 -6,-4 -8,-4 -3,0 -10,-4 -16,-10 -3,-10 -16,-16l4 15 -23 5c11,12 6,17 7,38 0,0 1,-20 1,-20l7 -15c22,3 20,5 23,12 -5,2 -4,0 -6,0l-4 0c-7,1 -3,-2 -9,4 3,1 10,3 13,5 8,6 2,0 8,12 10,20 8,4 16,20l-18 7c14,10 14,9 21,21 45,-17 24,-20 39,-27l-3 25c0,0 0,2 -1,2l-5 7c0,0 -1,1 -1,1 32,22 5,41 7,55 1,14 12,13 -2,51l-3 6c-35,-18 2,-40 -76,-42 7,29 29,16 44,36 -4,11 -6,11 -20,22l53 0c10,-1 6,1 13,-3 13,-8 2,1 7,-8l-8 -31 13 -10c9,-9 1,-6 -6,-18l-3 -5c-4,-11 1,5 -2,-6 -10,-48 6,-47 12,-50 -3,-19 11,-46 -3,-61 -10,16 2,30 -7,43 -7,-11 -4,-75 -3,-94l3 -48c5,-47 -30,-16 45,-86l45 -45c3,2 6,4 11,7 -4,7 -13,6 -14,7l3 11c0,0 -2,9 -2,12 12,7 3,0 14,4 -2,22 6,5 -10,14l10 11c-1,1 -2,1 -2,2 0,0 -2,1 -2,2l-10 8c15,25 2,25 12,31 10,6 14,-9 22,20 6,21 -2,20 8,38 7,12 5,3 6,21 1,9 -2,8 1,17 24,-3 8,-20 8,-35 15,3 17,9 19,11 0,31 -9,23 -23,39 6,14 -12,-10 4,4l10 9c5,8 1,15 3,27 12,-5 8,-4 19,-15 6,-6 11,-12 21,-17 2,-4 0,-1 5,-8l47 -48 -20 -3c-10,2 3,-1 -7,3 -15,6 -25,7 -46,6l-25 -29c-14,-15 2,-8 -20,-34 -25,-29 8,-37 -3,-68 -5,-14 0,7 -4,-11 -8,-42 -6,-23 -15,-53l93 -94c10,-11 14,-15 23,-24 20,-19 56,-57 70,-65l99 -99c15,-13 18,-29 39,-20 -10,28 -23,20 -34,19 2,25 8,7 -2,28 10,-2 14,-4 29,-3l3 -8c0,-1 2,-4 3,-6 0,-2 1,-2 1,-3 8,3 7,3 16,7 3,-22 -4,-7 16,-19 1,-1 6,-4 7,-5l2 21c-4,-6 3,-3 -7,-5 -10,-2 0,-3 -7,2 1,2 6,15 6,15 6,11 -2,5 9,10 5,-6 2,-14 4,-18 36,4 24,28 24,28 0,0 -1,1 0,2l5 2c1,0 2,1 3,1l14 6c0,-13 -5,-29 -12,-41 -15,-26 -10,-6 -9,-34 -36,-15 -7,-19 -41,-23 0,-18 2,-11 -8,-20l64 -67c1,-1 1,-1 2,-2l8 -6c47,-38 22,-21 50,-50 11,-12 12,-16 23,-27 10,-10 17,-15 27,-24l13 -12c2,-2 5,-5 8,-7l6 -5c-4,-10 -4,-6 -19,-6 -12,3 -135,129 -163,158l-362 364c-16,18 -110,112 -124,119z"/>
   <path class="fil10" d="M4647 2653c2,-19 -2,-6 7,-12 9,7 6,1 7,19 0,59 4,52 -10,54l-3 -61zm-348 44c0,23 -29,21 -42,13 -12,-8 -18,-26 -13,-45 9,-34 61,-38 59,17l-47 1c4,36 25,16 42,15zm22 16c-6,-10 -3,-59 -4,-72 23,2 5,7 17,3 9,-3 -6,-4 11,-3 15,1 2,-1 7,4 -10,21 -23,-13 -23,47 0,20 3,17 -9,21zm349 -72c26,-2 2,-9 19,-18 7,5 3,4 19,22 -17,14 -13,-1 -12,54 10,7 7,2 12,11 -32,19 -26,-35 -26,-54l-5 -3c-13,-12 5,7 -4,-4 -4,-5 -2,-1 -4,-8zm-88 73c-1,-1 -1,-2 -1,-3l-3 -81c1,-25 7,-19 8,-20 9,9 5,28 5,55 30,-13 12,-26 43,-24l-24 28c5,16 19,29 26,43 -14,0 -18,-4 -24,-13 -11,-16 -4,-16 -20,-15 -5,19 6,22 -11,28zm-94 -46c8,11 0,7 15,12 -6,-23 -2,-5 6,-11 -4,-19 4,-28 23,-29 18,-1 26,7 27,22 -23,0 -11,-21 -39,-7 -4,27 47,9 40,43 -4,19 -50,29 -56,-8l15 3c-2,-4 6,-17 -16,-7 -9,4 -3,1 -6,9l-5 38c-17,-6 -11,-8 -20,-6 -6,11 -3,4 -2,21 1,10 1,12 0,22l-9 3c-2,0 -1,-2 -8,1 6,22 18,4 17,17 -12,25 -17,12 -29,7 -9,-3 -5,-5 -13,1 -11,9 5,4 -12,11 -1,-1 -2,-2 -2,-2l-4 -4c-4,-3 -1,-1 -5,-5 9,-17 -2,-1 15,-12 -10,-18 1,-12 -7,-25 -7,-11 -6,2 -13,-16 -7,-19 2,-32 -32,-28l-8 -25c0,7 4,5 7,9 -5,-16 -11,-38 0,-52 9,-11 30,-18 45,-6 16,13 28,75 -35,65l11 6c9,3 3,1 10,2 1,0 2,0 3,1l6 2c1,0 2,1 3,1l7 3 14 -24c14,12 18,8 25,28l7 -3c7,-5 0,-7 8,-15l-10 -1 -25 -71c26,-2 11,15 28,43l4 3c18,-37 4,-47 29,-47l-8 27zm-288 -27c26,-3 35,22 31,47 -4,29 -22,26 -47,23l0 30 -11 3c-10,9 -2,-4 -1,5 2,17 19,8 22,37 -1,0 -2,1 -2,1l-6 2c-4,1 -1,4 6,19 19,-8 0,1 9,-10 5,-7 -5,-3 7,-7 14,9 5,14 -1,28 1,1 2,1 2,2l4 4c1,1 1,1 2,2 1,1 1,1 2,2 10,10 14,15 38,16l4 11 499 0 -1 -14c37,-33 12,-40 7,-55 -4,-11 1,-52 -26,-61 16,-2 13,0 17,-9 -18,1 -33,-10 -35,-29 -3,-27 8,-31 18,-43 14,-12 23,0 26,-18 3,-17 -2,-18 -15,-22 1,4 5,16 4,19 -1,14 0,9 -11,14 -12,-15 0,-20 -8,-35 -10,-19 -6,0 -10,-29 -3,-26 -8,-27 -20,-37 -2,-1 -5,-14 -48,-16l-82 6c-12,0 -26,-3 -39,-4 -26,-1 -59,5 -78,4 -104,-4 -64,-11 -83,18 -4,0 -16,-2 -16,-2 -24,-1 -5,8 -32,14 -1,-16 -3,-4 7,-14l4 -4c1,-1 1,-1 2,-2 6,-6 1,-3 11,-7 17,-6 -3,3 11,-3 -1,-1 -2,-1 -3,-1l-16 -4c-10,-2 -4,3 -14,-5 -13,4 7,2 -11,7 -8,2 -9,1 -18,1 -20,0 -10,-1 -23,12l-6 -10c-3,-4 -3,-4 -6,-7l-21 4c-4,9 0,-1 0,6 -2,33 -26,22 -25,50 -7,-4 -17,-10 -20,3 -3,14 3,4 15,16 -12,10 -1,0 -6,10 0,1 -1,2 -1,2 -3,7 -15,15 -2,32z"/>
   <path class="fil10" d="M3433 2545l0 298c1,16 6,11 25,11 12,0 24,0 36,0 24,0 48,-1 72,-1l205 1c9,-13 7,-1 4,-16 -3,-15 -6,-6 -7,-18 18,-3 44,10 55,22 62,-21 21,-44 21,-67 0,-12 3,-14 -7,-21 0,0 -11,-3 -12,-3 -23,0 -6,-3 -13,5 5,-14 -24,-17 -27,-18 4,-6 14,-19 15,-22 7,11 -3,17 14,25 10,-12 3,-26 3,-30 0,0 22,-5 22,-5 18,-3 -3,5 17,2l1 -16c-7,-4 -3,-2 -11,-3l-11 -1 1 -25c-13,-11 -12,-1 -16,-14 0,-1 52,-37 8,-47 4,17 13,29 -10,33 -6,-16 4,-14 -2,-30 -6,-17 -8,0 -11,-30 -3,-30 -10,-32 -22,-42l-4 -4c-8,-7 8,1 -6,-5 -22,-10 -46,-6 -67,-4 -8,1 -30,-2 -36,0 -26,5 -5,5 -10,18 -27,-8 12,-26 -97,-18l-50 2c-11,0 -19,-2 -29,-2 -13,0 -16,3 -28,3 -8,15 -3,-1 0,18l-26 3z"/>
   <path class="fil11" d="M5711 2658c-10,5 -15,10 -21,17 -11,11 -7,10 -19,15l-151 153c-6,9 5,1 -7,8 -7,4 -3,2 -13,3l11 7c-9,8 -3,52 -3,65 0,60 3,198 -1,240 8,7 -2,3 11,3 86,-83 166,-166 250,-249 42,-42 84,-85 125,-125 22,-21 42,-42 63,-63l63 -64c11,-2 9,-5 13,-10l6 -16c-65,11 -280,0 -303,4 -18,3 -16,14 -23,13z"/>
   <path class="fil12" d="M3068 2475c2,9 3,3 -6,6 -3,10 -9,8 -14,22 23,40 100,73 161,90 72,20 141,25 222,28 2,29 4,191 -2,210 -77,3 -131,5 -203,18 -37,7 -149,35 -162,62 40,35 193,76 260,72l-1 -51 12 8c17,15 52,60 69,69 13,2 7,3 16,-3 1,-1 5,-4 6,-5 10,-12 6,-33 6,-58 0,-17 0,-33 0,-50l0 -36c0,-1 0,-2 0,-4 0,-1 0,-2 1,-4l2 -7 0 -298c0,-29 5,-23 7,-35 1,-14 4,1 -14,-11 0,-28 -5,-128 6,-151l5 -14c-5,-4 3,-2 -6,-1 -20,11 -38,37 -53,53 -16,17 -43,46 -55,56l-2 -52c-32,-1 -106,19 -137,28 -74,23 -95,47 -117,57z"/>
   <path class="fil13" d="M3028 2890c23,33 73,57 125,73 34,11 140,35 176,26l1 -37 13 10c12,11 4,10 31,33 25,22 18,19 31,33 5,6 7,6 11,12 -2,11 5,-7 -3,5l-82 82 -3 -43c-42,-2 -118,-14 -157,-26l-49 -15c-27,-12 -56,-26 -78,-47 -22,-21 -21,-72 -16,-106zm289 204c10,12 1,27 6,53 19,-17 31,-28 53,-50 20,-19 38,-41 53,-50l-3 -13c-6,-3 -7,-4 -13,-10 -8,-8 -7,-7 -12,-15 -17,-9 -52,-55 -69,-69l-12 -8 1 51c-66,4 -219,-36 -260,-72 13,-27 125,-55 162,-62 72,-13 127,-16 203,-18 5,-19 4,-181 2,-210 -81,-3 -150,-8 -222,-28 -60,-17 -137,-50 -161,-90 6,-14 11,-11 14,-22 5,-14 6,-2 0,-10 -14,9 -13,7 -21,21 -4,7 -11,16 -11,23 -4,-14 -5,-51 -3,-66 2,-13 9,-28 15,-39 5,-9 0,-2 5,-9 10,-15 11,-11 23,-23 1,-1 3,-3 3,-4 5,-5 0,-1 7,-7 51,-38 127,-60 192,-72 16,-3 43,-5 57,-12l0 -39c12,6 31,28 42,39 1,1 1,1 2,2 1,1 1,1 2,2 8,7 14,13 22,21l22 21 -67 70c-8,7 -14,13 -22,20l-2 -38c-64,-5 -176,31 -239,69 -1,0 -13,8 -13,8 -13,12 -7,5 -8,15 22,-9 42,-34 117,-57 31,-10 104,-29 137,-28l2 52c13,-10 39,-39 55,-56 15,-16 33,-42 53,-53l-1 -10c-14,-3 -88,-85 -108,-97l-1 52c-70,17 -130,17 -207,58 -98,52 -96,87 -96,169 0,80 7,116 102,163 96,47 170,42 205,56 -13,5 -86,12 -108,16 -33,7 -68,16 -95,27 -101,38 -104,66 -104,140 0,45 -5,70 24,99 38,38 119,61 172,72 19,4 95,13 103,16z"/>
   <path class="fil10" d="M5160 2524l-9 3c4,2 6,-1 5,9 -2,18 -13,26 -28,29 2,8 4,12 4,18 2,20 -2,-1 0,9 1,6 -1,-1 3,5l9 16c11,27 24,17 13,43 -12,5 8,-2 -21,-7 4,41 3,11 -4,36 42,-4 31,-21 50,-32 11,6 -2,-1 6,5 12,9 17,7 20,9 -2,23 -6,2 -4,21l7 32c4,15 2,-1 7,19l10 -7c6,-3 10,-1 19,-7 2,20 9,11 13,38l-20 -15c-10,7 -5,5 -14,14 -10,-3 -24,-15 -35,-11 0,19 4,27 8,41l1 5c-19,16 -15,14 -46,9 -1,2 -2,11 -2,11 -8,17 7,-5 -4,5 -8,8 -9,0 -13,14 38,9 31,4 41,19l271 1c14,-11 16,-11 20,-22 -15,-20 -37,-7 -44,-36 77,2 40,24 76,42l3 -6c14,-38 4,-37 2,-51 -1,-14 25,-32 -7,-55 0,-1 1,-2 1,-1l5 -7c0,0 0,-1 1,-2l3 -25c-16,8 6,11 -39,27 -7,-12 -7,-12 -21,-21l18 -7c-9,-16 -7,0 -16,-20 -5,-11 0,-6 -8,-12 -2,-2 -9,-3 -13,-5 6,-5 2,-3 9,-4l4 0c2,0 1,2 6,0 -3,-7 -1,-9 -23,-12l-7 15c0,0 -1,20 -1,20 -1,-21 4,-26 -7,-38l23 -5 -4 -15c13,5 0,6 16,16 7,5 3,0 10,4 4,2 3,2 6,4l4 6c5,11 3,9 3,23l38 5c1,0 2,1 3,2 1,0 2,1 3,2 -1,-11 -1,-14 -2,-24 0,0 0,-6 0,-7 0,0 0,-1 0,-2l2 -6c1,-3 0,-39 -1,-41 -5,-20 -7,5 -7,-22 0,-23 2,-15 6,-27 0,-1 1,-2 1,-3l0 -24c-22,4 -12,12 -18,21 -17,-26 -16,-22 -68,-21 -55,1 -16,8 -100,1 -7,-1 -20,-1 -27,3 -11,6 -1,-2 -6,8l-3 11 -29 -3c-7,10 -5,12 -20,15 -1,-23 34,-29 34,-29 -1,-1 -2,-2 -3,-1l-30 -8c-12,4 6,7 -33,8 -19,0 -15,9 -18,25 0,-1 -1,-3 -1,-2 0,0 -1,-2 -1,-2l-8 -25 -21 4z"/>
   <path class="fil14" d="M5047 2753c-22,-1 1,0 -16,1 -5,1 -15,2 -20,2 -1,0 -10,1 -7,-2 6,-7 -10,5 5,-3 1,0 2,-1 3,-1l7 -3c-8,-6 -7,-5 -22,-7l40 -48c13,-6 18,-6 31,-5 -10,95 -6,14 -21,67zm-136 -143c13,6 1,-1 11,14 5,9 6,8 11,15 4,6 17,29 18,32 18,-3 14,-6 25,-8 7,16 1,11 -2,16l-4 4c-7,9 -6,11 -8,23 21,-1 15,-1 28,-12 7,14 3,17 -7,27 12,25 3,32 -13,24 -4,-2 -8,-10 -9,-13 -11,1 -17,3 -26,2l-17 -9c2,-13 5,-16 8,-28 1,-3 3,-12 4,-14l3 -5c0,-1 1,-2 2,-2l3 -4c-20,-12 -3,1 -19,-18l-7 -7c-7,-7 -10,-16 -6,-28 4,-11 2,-5 6,-9zm-57 39l-14 14c0,1 -1,2 -1,2 -4,7 -4,4 -8,10l-3 4c0,1 -1,2 -1,2 -7,17 -1,17 0,33 1,18 -4,12 -5,32 11,6 14,-8 11,22 -14,-2 -6,-1 -13,-5 -10,-5 -3,-6 -16,-7 7,20 2,9 18,18l-1 39c-37,8 -8,6 -20,22 -17,-5 8,-1 -17,-11l2 29 390 0c-10,-15 -3,-10 -41,-19 4,-14 5,-6 13,-14 11,-10 -4,12 4,-5 0,0 2,-10 2,-11 31,5 27,7 46,-9l-1 -5c-4,-15 -9,-22 -8,-41 11,-4 25,9 35,11 9,-9 4,-7 14,-14l20 15c-4,-27 -11,-18 -13,-38 -9,6 -13,4 -19,7l-10 7c-5,-19 -3,-3 -7,-19l-7 -32c-2,-19 2,2 4,-21 -3,-2 -8,0 -20,-9 -8,-6 5,1 -6,-5 -19,11 -8,28 -50,32 7,-25 7,5 4,-36 29,5 9,12 21,7 11,-27 -2,-16 -13,-43l-9 -16c-4,-6 -1,1 -3,-5 -2,-10 2,10 0,-9 -1,-6 -2,-10 -4,-18 14,-4 26,-12 28,-29 1,-11 -1,-8 -5,-9l9 -3 -173 2c-6,-1 -14,-6 -22,1 -9,8 -2,-7 -5,9 -1,0 -3,-3 -4,-2 -2,2 -2,-5 -16,-9 -3,-1 -18,0 -22,0l-8 13c-29,53 -5,43 -9,76 -9,6 0,0 -8,1l-4 0c-1,0 -6,1 -6,1 -30,3 3,-8 -16,2 -14,7 4,-1 -5,2 -4,1 -3,0 -4,0l-7 28z"/>
   <path class="fil10" d="M5808 2231c12,2 12,12 11,17 0,1 0,2 -1,2 -1,2 -1,4 -2,7 -2,7 -2,-2 -3,14l14 -6c15,-3 2,0 15,0 22,1 0,-1 20,-7 12,14 0,13 23,14 -4,-17 -5,-7 -1,-15l12 14c-19,18 -14,7 -25,24 -4,7 -2,7 -9,12 -6,5 -1,1 -7,4 -55,26 -34,11 -44,5 -2,-1 -9,-8 -13,4 -7,17 -2,12 10,16l-12 2c24,0 11,-1 16,14 2,8 3,16 2,27l17 3 3 23c3,-21 10,-13 28,-20 5,-11 -2,-4 9,-22 -21,4 -2,23 -30,-1 -12,-10 -5,4 -16,-11 1,-1 2,-3 3,-2l12 -2c11,1 4,15 37,-13 19,6 -1,19 26,6 1,-17 5,-10 -9,-14 17,-10 5,-2 9,-17 6,-19 1,-6 13,-19l-16 -21c2,1 13,4 14,4 21,4 8,-6 35,6l-8 18c0,0 -1,1 -2,2 0,1 -1,1 -2,2l-11 11c4,11 -4,11 14,14 -5,10 -9,9 -14,15l-3 4c-10,17 -13,58 -46,57 0,-1 -3,-3 -1,-10 -15,7 6,3 -15,9 5,15 5,-5 12,29 -9,9 1,4 -16,7 -2,22 3,18 -6,23 -17,-5 -8,-1 -13,-34 0,-1 0,-2 -1,-4 -24,22 -15,9 -12,39 2,22 -3,26 -21,32 7,14 5,4 5,20 -19,8 -16,-5 -18,13l-7 -14c-12,15 -10,16 -11,47 11,0 19,-1 26,3 9,-5 6,-3 13,-10 4,-4 6,-6 10,-11l70 -69c30,-30 61,-61 91,-91l136 -136c11,-11 35,-39 47,-47l-1 -102c-46,4 -11,17 -43,16 -8,-17 -2,-18 -1,-35 -15,-8 -22,-3 -20,-27 8,-4 19,-9 31,-6 21,6 -13,2 33,10l0 -184 -6 5c-3,3 -5,5 -8,7l-13 12c-9,8 -17,13 -27,24 -11,11 -12,15 -23,27 -27,29 -3,13 -50,50l-8 6c-1,1 -1,1 -2,2l-64 67c10,8 8,2 8,20 34,4 6,8 41,23 -1,28 -6,8 9,34 7,11 12,27 12,41l-14 -6c-1,0 -2,-1 -3,-1l-5 -2c0,-1 0,-2 0,-2 0,0 11,-23 -24,-28 -1,5 1,12 -4,18 -10,-6 -3,0 -9,-10 0,-1 -5,-13 -6,-15 7,-5 -3,-4 7,-2 9,2 2,-1 7,5l-2 -21c-1,1 -6,5 -7,5 -20,12 -14,-3 -16,19 -9,-4 -8,-4 -16,-7 -1,1 -1,1 -1,3 0,2 -2,5 -3,6l-3 8c-14,-1 -18,1 -29,3 11,-22 4,-4 2,-28 11,2 24,9 34,-19 -21,-9 -24,7 -39,20l-99 99z"/>
   <path class="fil8" d="M5800 2560c-5,15 -24,25 -37,42l-47 48c-5,7 -3,4 -5,8 7,1 4,-9 23,-13 23,-4 238,7 303,-4l-6 16c-3,5 -2,8 -13,10l27 -25 107 -107c17,-16 12,-34 12,-60 0,-58 -7,-237 5,-279 -12,8 -37,35 -47,47l-136 136c-31,30 -62,61 -91,91l-70 69c-5,4 -6,7 -10,11 -8,7 -4,5 -13,10z"/>
   <path class="fil15" d="M5700 1481c-2,10 -21,24 -27,27 -8,12 -13,13 -23,22l-69 71c-11,12 -18,19 -30,31 -19,19 -115,110 -121,124 -9,5 -41,39 -50,49l-152 152c-54,51 -100,101 -150,151 -10,9 -17,15 -26,24 -14,13 -11,25 -9,45l216 -4 -213 0 1 -27c8,-2 169,-5 193,-2 23,3 13,0 18,14 4,-27 6,-20 42,-57 1,-1 3,-3 4,-3l290 -290c11,-11 43,-40 50,-53l69 -66c10,-10 24,-24 34,-34l36 -36c23,-22 127,-130 141,-135l-2 27c8,-7 9,-6 5,-36l-200 -2c-25,3 -6,5 -27,8z"/>
   <path class="fil16" d="M5763 2602c13,-16 32,-27 37,-42 -7,-4 -15,-3 -26,-3 0,-31 -1,-32 11,-47l7 14c3,-18 -1,-5 18,-13 0,-16 1,-6 -5,-20 18,-6 23,-10 21,-32 -3,-31 -12,-17 12,-39 1,1 1,2 1,4 6,33 -4,29 13,34 9,-5 4,-2 6,-23 17,-4 7,1 16,-7 -7,-34 -7,-13 -12,-29 21,-6 0,-2 15,-9 -2,7 1,9 1,10 34,1 37,-40 46,-57l3 -4c4,-5 9,-4 14,-15 -18,-4 -10,-3 -14,-14l11 -11c1,-1 1,-1 2,-2 0,0 1,-1 2,-2l8 -18c-27,-12 -14,-2 -35,-6 0,0 -11,-4 -14,-4l16 21c-12,13 -7,0 -13,19 -4,14 8,7 -9,17 14,5 10,-3 9,14 -27,13 -8,0 -26,-6 -33,28 -25,14 -37,13l-12 2c-1,-1 -2,1 -3,2 11,15 4,0 16,11 28,24 10,5 30,1 -10,18 -4,11 -9,22 -18,6 -25,-1 -28,20l-3 -23 -17 -3c1,-11 0,-19 -2,-27 -4,-15 8,-14 -16,-14l12 -2c-12,-3 -16,1 -10,-16 4,-11 11,-5 13,-4 10,6 -11,21 44,-5 6,-3 1,1 7,-4 7,-5 5,-5 9,-12 11,-17 6,-6 25,-24l-12 -14c-4,8 -2,-2 1,15 -22,-1 -11,0 -23,-14 -19,5 2,8 -20,7 -13,-1 0,-4 -15,0l-14 6c0,-15 1,-7 3,-14 1,-3 1,-4 2,-7 0,-1 1,-2 1,-2 1,-4 1,-15 -11,-17 -13,8 -50,46 -70,65 -9,8 -13,13 -23,24l-93 94c9,30 7,11 15,53 4,19 -1,-3 4,11 11,31 -22,38 3,68 22,26 6,19 20,34l25 29c21,1 31,0 46,-6 10,-4 -3,-1 7,-3l20 3z"/>
   <path class="fil16" d="M5520 2843l151 -153c-2,-12 2,-19 -3,-27l-10 -9c-15,-14 2,11 -4,-4 14,-16 23,-9 23,-39 -1,-1 -4,-8 -19,-11 1,14 17,31 -8,35 -3,-9 -1,-7 -1,-17 -1,-18 1,-9 -6,-21 -10,-18 -2,-17 -8,-38 -8,-30 -13,-15 -22,-20 -10,-6 3,-6 -12,-31l10 -8c1,0 2,-1 2,-2 0,0 2,-1 2,-2l-10 -11c16,-10 9,7 10,-14 -11,-4 -2,4 -14,-4 0,-2 2,-12 2,-12l-3 -11c1,0 10,0 14,-7 -5,-3 -8,-5 -11,-7l-45 45c-75,70 -40,39 -45,86l-3 48c-1,18 -4,82 3,94 9,-13 -3,-27 7,-43 14,14 0,42 3,61 -5,3 -22,2 -12,50 3,12 -2,-4 2,6l3 5c8,12 15,9 6,18l-13 10 8 31z"/>
   <path class="fil15" d="M4386 1489c-5,16 -19,23 -36,39 -12,11 -26,27 -38,38 -11,10 -26,25 -36,36 -6,6 -12,13 -18,18 -12,11 -14,10 -18,23 -11,1 -14,10 -31,27l-154 154c-5,5 -9,9 -14,14l-233 233c-9,9 -18,19 -30,30 -7,6 -10,9 -17,16 -6,6 0,-1 -7,8 -8,11 -2,-1 -8,13 15,0 197,-5 209,3l365 -363c21,-21 41,-39 61,-61 11,-12 21,-21 31,-30 6,-6 7,-8 14,-15 8,-9 9,-7 16,-19 14,-6 70,-70 89,-87 16,-14 31,-29 46,-44 11,-11 38,-32 43,-51l-213 1c-11,8 -5,12 -21,17z"/>
   <path class="fil15" d="M5016 1500c-5,15 -5,8 -15,18l-105 103c-10,10 -11,9 -16,23 -10,0 -56,50 -62,57 -18,21 -41,41 -63,63 -77,74 -168,170 -247,247l-93 93c-12,11 -27,24 -32,36 40,-5 134,-2 184,-1 41,0 31,-7 71,-44l281 -281c23,-20 165,-161 170,-172 10,-5 139,-140 167,-161l-1 27c9,-10 6,-24 7,-38 -38,4 -100,1 -140,1 -16,0 -54,-2 -68,1 -20,4 -23,22 -38,29z"/>
   <path class="fil17" d="M3332 3128l82 -82c8,-12 0,6 3,-5 -4,-6 -6,-6 -11,-12 -13,-14 -6,-11 -31,-33 -26,-23 -19,-23 -31,-33l-13 -10 -1 37c-36,8 -142,-16 -176,-26 -52,-16 -103,-40 -125,-73 -5,34 -5,86 16,106 22,21 50,35 78,47l49 15c40,12 116,25 157,26l3 43z"/>
   <path class="fil17" d="M3061 2481c9,-3 8,3 6,-6 1,-10 -5,-3 8,-15 0,0 13,-8 13,-8 63,-38 175,-74 239,-69l2 38c9,-7 14,-13 22,-20l67 -70 -22 -21c-9,-8 -14,-14 -22,-21 -1,-1 -1,-1 -2,-2 -1,-1 -1,-1 -2,-2 -11,-11 -30,-33 -42,-39l0 39c-14,7 -41,9 -57,12 -65,12 -142,34 -192,72 -8,6 -2,1 -7,7 -1,1 -3,3 -3,4 -12,13 -13,8 -23,23 -5,7 0,0 -5,9 -6,11 -13,26 -15,39 -2,15 -1,52 3,66 0,-7 7,-16 11,-23 8,-14 7,-12 21,-21 6,8 5,-5 0,10z"/>
   <path class="fil18" d="M5090 1642c-5,11 -148,151 -170,172l-281 281c-40,37 -30,45 -71,44 -50,0 -143,-3 -184,1 -18,44 25,33 55,33 33,0 67,0 100,0 73,0 43,12 126,-70 70,-69 134,-132 199,-199 62,-64 128,-127 196,-197 17,-17 33,-34 48,-48l99 -101c9,-10 43,-38 48,-49l1 -27c-28,21 -157,156 -167,161z"/>
   <path class="fil18" d="M4441 1654c-7,12 -8,10 -16,19 -7,7 -8,9 -14,15 -9,9 -20,19 -31,30 -21,22 -40,40 -61,61l-365 363c-12,-8 -194,-3 -209,-3 -5,5 -10,30 3,35l200 1c20,-2 67,-58 81,-72 20,-21 34,-32 50,-50l154 -154c62,-63 139,-138 202,-203 47,-48 135,-132 177,-178 14,-16 11,-22 9,-46l-3 2c-5,19 -33,40 -43,51 -15,15 -30,30 -46,44 -19,17 -75,81 -89,87z"/>
   <path class="fil18" d="M5644 1756c-7,13 -38,42 -50,53l-290 290c-1,1 -3,3 -4,3 -37,36 -38,30 -42,57 -5,-14 5,-11 -18,-14 -24,-3 -185,0 -193,2l-1 27 213 0c11,-2 35,-31 42,-38 61,-60 613,-612 619,-623l2 -27c-14,6 -118,114 -141,135l-36 36c-10,10 -24,24 -34,34l-69 66z"/>
   <path class="fil19" d="M4779 2668l1 14 -49 2c5,14 5,13 17,24l30 -10c-7,14 -6,12 -23,17 -3,9 -1,7 -17,9 27,9 22,50 26,61 5,15 30,23 -7,55l1 14 29 0 -2 -29c26,9 0,6 17,11 12,-15 -17,-13 20,-22l1 -39c-16,-10 -11,1 -18,-18 14,0 6,2 16,7 8,4 0,3 13,5 3,-29 0,-15 -11,-22 2,-19 7,-14 5,-32 -1,-16 -7,-16 0,-33 0,-1 1,-2 1,-2l3 -4c4,-6 3,-3 8,-10 0,-1 1,-2 1,-2l14 -14c-2,-20 1,-9 -7,-17 -19,3 -30,13 -32,33 -14,3 -22,6 -36,3z"/>
   <path class="fil20" d="M3402 3010c4,8 3,7 12,15 6,6 7,7 13,10 8,-7 4,1 5,-30 1,-33 18,-23 38,-51 5,-7 0,-2 8,-10l20 -16c6,-7 6,-11 16,-19 5,-4 6,-4 10,-8 6,-6 9,-15 29,-26l-8 -5c52,-18 35,-8 96,-12l-73 -5c-24,0 -48,1 -72,1 -12,0 -24,0 -36,0 -19,0 -25,4 -25,-11l-2 7c0,1 -1,2 -1,4 0,1 0,2 0,4l0 36c0,17 0,33 0,50 0,25 4,47 -6,58 -1,1 -5,4 -6,5 -9,6 -3,5 -16,3z"/>
   <path class="fil10" d="M4801 2522l49 2c1,22 0,10 -18,18 7,21 11,11 23,12 8,19 -5,20 14,24 -11,10 -16,3 -21,-4 -4,4 -6,-1 -8,15 -14,0 -14,-2 -23,7 -7,-19 -2,-9 -2,-28l-18 -8 5 -38zm0 0c-27,-2 -54,-2 -81,-1 0,21 10,23 18,34 16,25 -12,-4 37,53 50,3 40,-8 57,-12 1,1 1,1 2,2 0,0 9,15 18,13l29 -13c-6,-3 -20,-4 7,-37 -9,-7 -15,-3 -26,-14l3 -10c8,-14 25,-6 33,-11 -19,0 -87,-9 -96,-2z"/>
   <path class="fil10" d="M3932 2521l4 16 -20 5c7,21 11,11 23,12 8,19 -5,20 14,24 -11,10 -16,3 -21,-4l-4 4c-1,1 -1,1 -2,2 -15,14 -14,7 -25,16 -7,-19 -2,-9 -2,-28l-18 -8c3,-21 4,-3 5,-18 1,-16 -5,0 -1,-22 -18,3 -61,1 -81,1 -1,26 12,16 23,46 7,18 2,4 16,20 21,24 3,22 49,18 28,-3 1,-4 24,-10 1,1 1,1 2,2l10 12c10,6 1,2 31,-10 8,-3 4,1 1,-3l-7 -8c6,-12 10,-20 17,-29 -9,-7 -1,0 -10,-4l-16 -10 10 -17c10,-6 20,0 26,-5 -19,0 -31,1 -49,-4z"/>
   <path class="fil19" d="M3899 2665l-39 6 1 9c5,25 9,12 6,25 -3,14 -14,2 -13,30l-13 -12c0,19 7,13 11,26 3,10 -4,24 -5,36l19 -9c-4,23 -2,9 7,21 4,5 9,14 12,20 10,-2 10,-4 17,-9l-2 -24 -26 -2c2,-13 -1,5 6,-9l2 -4c4,-10 0,-7 11,-16 14,5 4,9 23,11 1,-5 6,-4 -2,-14 -1,-1 -1,-1 -2,-2l-8 -6c15,-33 4,-20 3,-57 1,1 3,0 4,2 1,4 5,-2 14,15 0,-10 -2,-9 4,-14 -8,-7 -7,-2 -14,-14l16 -20c0,-1 1,-1 2,-2l6 -17c0,-2 1,-3 1,-5 -23,1 -37,11 -39,33z"/>
   <path class="fil16" d="M4471 2714c-7,8 0,10 -8,15l-7 3c-7,-19 -11,-15 -25,-28l-14 24 -7 -3c-1,0 -2,-1 -3,-1l-6 -2c-1,0 -2,0 -3,-1 -7,-2 -1,1 -10,-2l-11 -6 -11 -8c-4,-4 -7,-2 -7,-9l8 25c34,-4 25,9 32,28 7,17 6,5 13,16 8,13 -3,8 7,25 -17,11 -5,-5 -15,12 4,3 1,1 5,5l4 4c1,0 2,1 2,2 18,-7 1,-2 12,-11 8,-6 4,-5 13,-1 12,5 17,18 29,-7 1,-14 -12,5 -17,-17 7,-3 6,-1 8,-1l9 -3c1,-10 0,-12 0,-22 -1,-17 -4,-10 2,-21 9,-2 3,0 20,6l5 -38c3,-8 -3,-5 6,-9 21,-10 14,3 16,7 2,7 -4,9 12,10 9,1 9,-1 14,-4 1,-24 -19,-12 -37,-30 -8,6 -12,-11 -6,11 -15,-5 -7,-1 -15,-12l-17 45z"/>
   <path class="fil10" d="M4170 2675l0 -25c-12,-18 2,-1 -14,-10 -6,6 -14,4 -24,4 1,1 3,5 4,6 0,1 1,2 1,3 0,1 1,2 1,2 1,8 -6,14 -9,15 -1,0 5,4 -8,-2 14,-9 10,-8 8,-31 -13,5 -5,2 -12,9l-14 17c-7,9 -2,-1 -8,13 1,1 2,0 3,2l7 5c8,7 4,-4 6,11 -18,16 -18,-5 -29,14 -6,10 -1,6 -3,16 0,1 -1,4 -1,5 -1,7 -2,2 -1,12 10,5 14,0 23,7 -1,0 -3,0 -3,1 -4,9 -8,-7 -13,11 9,3 35,-3 46,-3 10,-16 -3,-3 12,-21 9,-10 12,-29 11,-45 14,-8 6,2 16,-14z"/>
   <path class="fil21" d="M2829 2595c5,-37 -12,-93 26,-95 38,-3 22,69 25,95l17 0c2,-18 3,-78 -3,-93 -5,-12 -15,-18 -29,-18 -20,-1 -23,6 -35,11l-2 -56 -17 0 1 156 17 0z"/>
   <path class="fil21" d="M2905 2903l-51 0c2,-43 53,-42 51,0zm21 15c-1,-117 -128,-51 -87,26 22,41 83,24 82,5 -1,-20 -18,7 -41,4 -18,-2 -26,-15 -28,-35l74 0z"/>
   <path class="fil19" d="M4950 2671c-1,-3 -14,-26 -18,-32 -4,-7 -5,-6 -11,-15 -9,-15 2,-8 -11,-14 -4,4 -2,-2 -6,9 -4,11 -1,20 6,28l7 7c15,19 -1,6 19,18l-3 4c0,1 -1,2 -2,2l-3 5c-1,2 -3,11 -4,14 -3,12 -6,15 -8,28l17 9c9,2 15,-1 26,-2 1,3 6,11 9,13 16,8 25,1 13,-24 10,-10 14,-13 7,-27 -13,11 -7,11 -28,12 2,-13 1,-14 8,-23l4 -4c4,-5 10,0 2,-16 -11,2 -7,5 -25,8z"/>
   <path class="fil21" d="M4518 2365c13,-6 6,-53 6,-68 9,10 13,22 18,35 13,32 6,27 20,32 5,-4 2,-1 5,-7l28 -68c4,19 -1,50 0,59 3,26 -5,10 10,16l4 -23c0,-8 0,-17 0,-25 0,-31 2,-37 -4,-48 -19,1 -12,-2 -26,33 -6,15 -12,30 -18,43 -27,-44 -16,-77 -47,-76 -1,6 -8,92 5,97z"/>
   <path class="fil10" d="M3874 2854l111 0c-2,-9 -1,-5 -5,-11 -10,-16 -6,-2 -7,-31l-24 0 -7 -19c-25,1 -19,4 -24,22l-26 8c-5,10 11,14 -8,14 -12,1 -2,1 -7,-4 -13,-13 10,-3 -4,-5l1 26z"/>
   <path class="fil6" d="M4444 2282c-31,18 -17,89 22,70 25,-12 15,-92 -22,-70z"/>
   <path class="fil7" d="M3919 2955c-29,37 -11,83 21,74 20,-6 36,-80 -21,-74z"/>
   <path class="fil21" d="M4886 2278c29,1 43,6 43,39 0,31 -13,38 -45,37l1 -76zm-14 87c42,0 70,-3 70,-48 0,-45 -28,-49 -70,-48l0 96z"/>
   <path class="fil21" d="M3163 3491c-10,-19 -9,-29 1,-48l24 1c6,12 6,31 2,46 -11,3 -13,5 -26,1zm1 -58c-31,9 -30,89 27,67 2,33 -20,20 -41,15 3,12 -1,10 11,15 4,2 14,2 19,2 12,-2 20,-10 23,-20 3,-10 2,-66 1,-78 -20,-1 2,3 -18,1 -10,-1 -9,-5 -21,-1z"/>
   <path class="fil21" d="M3919 2955c56,-7 41,67 21,74 -32,10 -50,-37 -21,-74zm-1 -10c-43,15 -32,115 28,93 39,-14 32,-114 -28,-93z"/>
   <path class="fil21" d="M4444 2282c37,-22 47,58 22,70 -39,19 -53,-52 -22,-70zm-1 -13c-45,14 -35,112 23,95 43,-12 36,-113 -23,-95z"/>
   <path class="fil19" d="M6167 2093l0 -41c-47,-8 -12,-5 -33,-10 -12,-3 -24,1 -31,6 -2,24 5,19 20,27 -1,17 -7,18 1,35 33,1 -3,-12 43,-16z"/>
   <path class="fil16" d="M3932 2521l-47 -1c-4,22 2,6 1,22 -1,15 -2,-2 -5,18l18 8c0,18 -4,9 2,28 12,-9 11,-2 25,-16 1,-1 1,-1 2,-2l4 -4c5,7 10,14 21,4 -19,-3 -7,-5 -14,-24 -12,-2 -16,9 -23,-12l20 -5 -4 -16z"/>
   <path class="fil10" d="M5047 2753c15,-52 10,28 21,-67 -13,0 -19,-1 -31,5l-40 48c15,3 14,1 22,7l-7 3c-1,0 -2,1 -3,1 -14,8 1,-4 -5,3 -3,3 6,2 7,2 5,0 15,-2 20,-2 16,-2 -6,-2 16,-1z"/>
   <path class="fil16" d="M4801 2522l-5 38 18 8c0,18 -4,9 2,28 9,-9 9,-7 23,-7 3,-17 4,-11 8,-15 5,7 10,14 21,4 -19,-3 -7,-5 -14,-24 -12,-2 -16,9 -23,-12 18,-7 19,4 18,-18l-49 -2z"/>
   <path class="fil6" d="M4885 2354c32,1 44,-6 45,-37 0,-33 -14,-38 -43,-39l-1 76z"/>
   <path class="fil21" d="M3987 2304c39,31 54,12 51,45 -14,7 -26,10 -38,-2 -10,-11 4,-4 -12,-11 -4,7 -7,-10 -3,11 2,10 19,19 35,18 33,-1 50,-38 7,-53 -13,-5 -26,-5 -28,-18 -2,-13 11,-18 24,-16 27,4 0,18 29,17 -4,-36 -68,-46 -65,9z"/>
   <path class="fil21" d="M4802 2329c0,-15 10,-30 15,-43l14 44 -29 0zm-23 36c18,-5 2,7 18,-25l39 -1c9,20 1,25 22,25l-32 -87c-8,-13 3,-4 -11,-9 -8,6 -5,1 -13,22l-24 62c-4,18 -1,8 1,13z"/>
   <path class="fil21" d="M5827 1319c8,8 13,30 17,41l-32 1 15 -41zm-40 77c20,-2 12,-7 22,-25l39 0c7,18 3,25 22,24l-28 -75c-7,-19 -4,-17 -15,-21 -11,7 -37,82 -40,97z"/>
   <path class="fil6" d="M4215 2697c-8,12 -24,12 -30,1 -3,-5 -2,-32 0,-37 14,-27 48,10 30,37zm-44 -22l1 69 11 -3 0 -30c25,3 43,7 47,-23 4,-25 -5,-50 -31,-47 -1,0 -6,2 -7,2 -29,3 -12,-9 -22,6l0 25z"/>
   <path class="fil21" d="M4108 2354c-21,4 -26,-2 -27,-23 -1,-41 35,-36 36,-4 1,20 -4,16 -10,26zm-30 38c6,-9 3,-21 4,-32 62,25 57,-61 27,-67 -20,-4 -3,6 -38,-1l-1 92c3,9 -1,4 8,7z"/>
   <path class="fil6" d="M4582 2715c16,-6 5,-9 11,-28 16,-1 9,-1 20,15 6,8 10,12 24,13 -7,-14 -21,-27 -26,-43l24 -28c-31,-2 -13,10 -43,24 0,-26 4,-45 -5,-55 0,0 -7,-6 -8,20l3 81c0,1 1,2 1,3z"/>
   <path class="fil6" d="M4257 2671c6,-24 30,-28 33,1l-33 -1zm42 27c-17,2 -39,22 -42,-15l47 -1c2,-55 -50,-51 -59,-17 -5,19 0,37 13,45 13,8 42,10 42,-13z"/>
   <path class="fil6" d="M4732 2671c7,-25 31,-28 33,0l-33 0zm22 44c17,-5 17,-3 23,-17l-30 10c-12,-10 -12,-10 -17,-24l49 -2 -1 -14c-8,-25 -12,-28 -43,-25 -10,12 -20,16 -18,43 2,20 18,30 35,29z"/>
   <path class="fil21" d="M3267 3490c0,0 -6,2 -2,-11 3,-12 20,-9 29,-8 2,8 4,14 -3,19 -14,12 -24,1 -24,1zm-13 -38c13,-1 38,-30 41,9 -27,1 -29,2 -43,15l1 19c26,22 22,3 49,8l7 2c-1,-20 4,-56 -10,-68 -15,-12 -42,-7 -45,15z"/>
   <path class="fil21" d="M4638 2322c6,-26 29,-30 34,0l-34 0zm44 27c-18,1 -40,20 -44,-15 14,-6 25,-1 47,-4 -1,-19 -3,-34 -21,-38 -19,-4 -34,7 -38,24 -12,50 50,64 56,32z"/>
   <path class="fil6" d="M4382 2702c-6,-10 -10,-19 -7,-33 4,-17 12,-17 29,-15 14,21 10,34 -1,51l-22 -3zm-15 4l11 8c63,9 51,-52 35,-65 -16,-13 -37,-5 -45,6 -11,14 -5,36 0,52z"/>
   <path class="fil21" d="M4236 2348c-8,-27 -3,-29 6,-45 53,-7 28,75 -6,45zm5 -54c-40,14 -21,86 23,70 36,-14 23,-86 -23,-70z"/>
   <path class="fil6" d="M4509 2670c18,19 38,7 37,30 -5,3 -5,5 -14,4 -15,-1 -10,-3 -12,-10l-15 -3c6,37 52,27 56,8 7,-34 -44,-16 -40,-43 27,-14 16,7 39,7 -1,-15 -9,-23 -27,-22 -19,1 -28,10 -23,29z"/>
   <path class="fil21" d="M5938 1396c0,-13 0,-26 0,-40 0,-43 2,-28 -8,-32 -5,6 -5,-1 -5,29 0,24 -2,40 -29,30 -6,-23 -1,-39 -3,-48 -2,-15 4,-5 -7,-11 -7,4 -4,-1 -6,8l2 50c8,23 30,12 54,14z"/>
   <path class="fil21" d="M3341 3445c5,-5 14,-6 22,-2 15,8 -7,7 18,9 -7,-32 -46,-25 -51,-6 -9,34 37,13 39,42 -23,20 -21,-5 -42,-6 3,32 48,27 55,8 11,-33 -39,-15 -40,-44z"/>
   <path class="fil21" d="M3773 2947c9,17 0,2 31,8l-1 64c1,24 -2,15 9,20 7,-12 5,-25 5,-42 0,-14 0,-28 0,-43 37,-5 25,5 31,-8 -5,-4 3,-4 -14,-5 -5,0 -16,0 -22,0 -16,0 -30,-3 -40,4z"/>
   <path class="fil21" d="M3413 3445c26,-13 13,5 40,8 -8,-33 -54,-31 -52,7 33,23 37,4 40,28 -23,20 -22,-5 -42,-6 4,54 97,1 32,-19 -17,-5 -17,-3 -18,-18z"/>
   <path class="fil6" d="M4236 2348c34,31 59,-51 6,-45 -10,16 -14,18 -6,45z"/>
   <path class="fil21" d="M4692 2274c10,7 19,4 31,6l0 66c0,26 -2,15 9,19 2,-4 2,-2 4,-9 0,-2 1,-8 1,-10 0,-7 0,-15 0,-22 0,-15 0,-30 1,-46 13,0 19,2 30,-5 -1,-1 -2,-3 -3,-2l-63 -3c-9,3 -2,0 -8,5z"/>
   <path class="fil10" d="M4382 2702l22 3c11,-17 15,-30 1,-51 -17,-2 -25,-3 -29,15 -3,14 1,24 7,33z"/>
   <path class="fil14" d="M4215 2697c18,-26 -16,-63 -30,-37 -2,5 -3,32 0,37 6,12 22,11 30,-1z"/>
   <path class="fil6" d="M4471 2714l17 -45 8 -27c-25,0 -11,10 -29,47l-4 -3c-17,-28 -2,-45 -28,-43l25 71 10 1z"/>
   <path class="fil6" d="M4108 2354c5,-11 10,-6 10,-26 -1,-32 -37,-37 -36,4 1,21 5,26 27,23z"/>
   <path class="fil5" d="M3163 3491c14,4 16,3 26,-1 4,-15 4,-34 -2,-46l-24 -1c-11,18 -11,29 -1,48z"/>
   <path class="fil12" d="M4670 2642c2,7 0,3 4,8 9,10 -9,-8 4,4l5 3c0,19 -6,72 26,54 -5,-8 -3,-4 -12,-11 -1,-55 -5,-39 12,-54 -16,-18 -12,-17 -19,-22 -17,9 6,16 -19,18z"/>
   <path class="fil21" d="M2951 2521c7,-4 8,5 6,-32 4,0 12,0 16,0l12 -4c-5,-11 0,-8 -27,-8 -5,-38 3,-22 -7,-28 -12,7 -2,-8 -8,28 -16,0 -23,-5 -27,8 9,6 16,4 28,4 0,5 0,18 0,22 2,17 -3,5 6,11z"/>
   <path class="fil12" d="M2905 2903c2,-42 -49,-43 -51,0l51 0z"/>
   <path class="fil21" d="M3226 3401c-1,1 -1,2 -2,2 -4,11 -7,87 2,100 9,-4 5,2 8,-8l0 -72c0,-26 -2,-19 -9,-22z"/>
   <path class="fil12" d="M4321 2714c12,-4 9,-2 9,-21 0,-60 13,-26 23,-47 -6,-5 8,-3 -7,-4 -17,-1 -2,0 -11,3 -12,4 5,-1 -17,-3 1,13 -2,62 4,72z"/>
   <path class="fil21" d="M4176 2293l0 56c2,25 -2,11 9,16l4 -20c0,-7 -1,-18 0,-25 3,-26 16,-3 22,-25 -14,-7 -1,2 -34,-2z"/>
   <path class="fil21" d="M3982 3022c11,-2 18,-19 29,-7 9,21 -22,30 -27,54 18,0 31,2 40,-4l-29 -4c11,-20 29,-20 25,-50 -19,-12 -31,-11 -38,11z"/>
   <path class="fil21" d="M4149 2365c11,-5 9,14 9,-38 0,-45 2,-32 -9,-35 -7,10 -7,61 0,73z"/>
   <path class="fil6" d="M4650 2714c14,-2 11,5 10,-54 0,-18 3,-13 -7,-19 -9,6 -5,-7 -7,12l3 61z"/>
   <path class="fil12" d="M5812 1360l32 -1c-4,-11 -9,-33 -17,-41l-15 41z"/>
   <path class="fil6" d="M4802 2329l29 0 -14 -44c-5,14 -14,28 -15,43z"/>
   <path class="fil5" d="M3267 3490c0,0 10,11 24,-1 6,-5 5,-11 3,-19 -9,-1 -25,-3 -29,8 -4,14 2,11 2,11z"/>
   <path class="fil6" d="M4638 2322l34 0c-5,-30 -28,-26 -34,0z"/>
   <path class="fil14" d="M4257 2671l33 1c-3,-29 -27,-25 -33,-1z"/>
   <path class="fil14" d="M4732 2671l33 0c-2,-27 -26,-24 -33,0z"/>
  </g>
 </g>
</svg>
