<?xml version="1.0" encoding="UTF-8"?>
<!DOCTYPE svg PUBLIC "-//W3C//DTD SVG 1.1//EN" "http://www.w3.org/Graphics/SVG/1.1/DTD/svg11.dtd">
<!-- Creator: CorelDRAW 2017 -->
<svg xmlns="http://www.w3.org/2000/svg" xml:space="preserve" width="9.40646cm" height="5.29166cm" version="1.1" style="shape-rendering:geometricPrecision; text-rendering:geometricPrecision; image-rendering:optimizeQuality; fill-rule:evenodd; clip-rule:evenodd"
viewBox="0 0 9406 5292"
 xmlns:xlink="http://www.w3.org/1999/xlink">
 <defs>
  <style type="text/css">
   <![CDATA[
    .str0 {stroke:black;stroke-width:101.6}
    .str1 {stroke:black;stroke-width:110.07}
    .fil4 {fill:#FEFEFE}
    .fil3 {fill:#FFED00}
    .fil16 {fill:black}
    .fil13 {fill:#38627C}
    .fil14 {fill:#4F7693}
    .fil12 {fill:#5FC9ED}
    .fil9 {fill:#618AAA}
    .fil8 {fill:#6C96B3}
    .fil11 {fill:#83D9FF}
    .fil7 {fill:#89B4C9}
    .fil6 {fill:#A7C7D3}
    .fil0 {fill:#E6E7E8}
    .fil10 {fill:#FDB659}
    .fil15 {fill:#FECBAA}
    .fil5 {fill:black;fill-rule:nonzero}
    .fil2 {fill:#373435;fill-opacity:0.031373}
    .fil1 {fill:#2B2A29;fill-opacity:0.101961}
   ]]>
  </style>
 </defs>
 <g id="Layer_x0020_1">
  <metadata id="CorelCorpID_0Corel-Layer"/>
  <polygon class="fil0" points="0,0 9406,0 9406,5291 0,5291 "/>
  <path class="fil1" d="M0 4978l0 -9 0 -13 0 -5 0 -59 0 -133 0 -6 0 -154 0 -18 0 -254 0 -550 0 -97 2563 -1945 0 103 1251 -946 -72 56 -69 60 -66 63 -63 66 -60 69 -56 72 -53 74 -49 77 -46 79 -42 82 -38 84 -34 86 -30 88 -26 90 -21 90 31 -23 0 272 368 -272 0 186 247 -181 0 216 2160 -1576 -9 7 -7 9 -6 10 -4 11 -1 12 0 136 61 -44 793 0 9 1 7 4 6 5 4 7 2 8 -1 8 -3 7 -6 7 -206 181 -4 4 -3 5 -2 5 -1 5 1 5 2 5 3 5 4 4 206 181 6 7 3 7 1 8 -2 8 -4 7 -6 5 -93 66 77 0 14 -1 13 -3 12 -5 11 -7 -1334 938 -114 343 3 3 8 9 12 14 15 18 18 21 20 24 21 25 22 26 22 26 22 26 20 24 18 22 16 19 12 15 8 10 3 4 7 9 7 9 7 10 7 10 7 10 6 10 6 10 5 11 5 11 4 11 1 2 119 -82 17 -10 18 -9 19 -7 20 -5 21 -3 21 -1 7 0 -234 160 0 5 0 14 -1 7 146 -100 -11 8 -10 9 -9 10 -8 11 -7 12 -6 13 -5 13 -4 14 -2 15 -1 11 98 -67 15 -8 16 -5 17 -2 67 0 0 0 0 0 0 0 0 0 0 0 0 0 0 0 0 0 0 0 0 0 0 0 0 0 0 0 0 0 0 0 0 0 427 0 17 2 16 5 15 8 13 10 11 13 8 15 5 16 2 17 0 1565 -95 61 155 0 -95 61 313 0 12 -1 11 -4 10 -6 -823 523 -17 0 -308 0 -152 0 -622 0 -151 0 -541 0 -48 0 -35 0 -36 0 -114 0 -46 0 -18 0 -146 0 -415 0 -20 0 -9 0 -78 0 -41 0 -74 0 -63 0 -21 0 -38 0 0 0 -14 0 -19 0 -110 0 -7 0 -82 0 -32 0 -29 0 -13 0 -44 0 -12 0 -1 0 -1 0 -7 0 -5 0 -4 0 -10 0 -37 0 -6 0 -13 0 -5 0 -9 0 -18 0 -21 0 -20 0 -21 0 -1 0 -7 0 -3 0 -2 0 -25 0 -1 0 -4 0 -2 0 -6 0 -17 0 -29 0 -13 0 -1 0 -10 0 -14 0 0 0 -12 0 -9 0 -46 0 -5 0 -14 0 -11 0 -19 0 -40 0 -3 0 -2 0 -5 0 -10 0 -16 0 -14 0 -9 0 -49 0 -103 0 -24 0 -45 0 -3 0 -37 0 -2 0 -132 0 -160 0 -11 0 -46 0 0 0 -51 0 -54 0 -55 0 0 0 -61 0 -15 0 -58 0 -5 0 -20 0 -5 0 -69 0 0 0 -21 0 -21 0 0 0 -9 0 -47 0 0 0 -24 0 -15 0 -27 0 -21 0 -21 0 -5 0 -41 0 -1 0 0 0 -18 0 -18 0 -1 0 -15 0 0 0 -61 0 -21 0 -36 0 -8 0 -2 0 -3 0 -3 0 -7 0 -10 0 -1 0 -2 0 -11 0 -8 0 -30 0 -16 0 -2 0 -14 0 -1 0 -5 0 -4 0 -1 0 -1 0 -7 0 -24 0 -18 0 -18 0 -5 0 -4 0 0 0 -11 0 -72 0 -18 0 -11 0 -32 0 -14 0 -161 0 -61 0 -14 0 -12 0 -17 0 -2 0 0 -12 0 -10 0 -1 0 -3 0 -48 0 -16 0 -11 0 -16 0 -40 0 -1 0 -35 0 -7 0 -113zm6782 -3785l0 0z"/>
  <path class="fil2" d="M551 4639c18,28 30,53 41,81 8,18 13,48 53,48 13,0 28,-3 43,-13 18,-8 30,-23 36,-43l15 -53 38 -18 3 3c-5,20 -8,41 -8,53 0,46 38,61 69,61 18,0 33,-10 33,-25 0,-20 -10,-58 -20,-89 18,-18 36,-36 56,-51l3 3c10,38 15,76 15,102 0,25 -10,51 -20,69 -18,36 -51,64 -91,64 -30,0 -64,-15 -86,-43l-3 0c-23,28 -56,51 -109,51l-18 0c-3,36 -10,61 -23,84 -33,64 -127,107 -216,107 -124,0 -185,-71 -185,-168 0,-58 20,-114 48,-152l25 10c-18,36 -30,69 -30,102 0,89 74,132 157,132 79,0 173,-48 191,-107 -8,-64 -30,-91 -66,-150 10,-18 25,-38 43,-58l3 0 0 0 0 0 5 3zm1433 -338c25,15 51,36 76,58 -15,20 -30,38 -53,53 -25,-20 -51,-38 -76,-56 18,-20 36,-38 51,-56l0 0 0 0 3 0zm13 244c-43,0 -76,28 -76,48 0,43 84,58 185,58 -13,-51 -56,-107 -109,-107zm-94 236c56,0 104,-3 140,-10 41,-10 76,-30 76,-46 0,-5 0,-8 -3,-13 -23,3 -48,3 -74,3 -74,0 -132,-18 -155,-58 -5,-13 -10,-25 -10,-41 0,-41 18,-81 48,-107 25,-23 53,-36 84,-36 51,0 94,41 122,107 15,36 28,76 28,130 0,36 -10,64 -30,86 -41,38 -114,53 -229,53l-51 0 0 0 -13 0c-28,0 -48,-5 -64,-18l-3 0c0,8 3,13 3,18 0,25 -8,58 -25,84 -51,76 -107,109 -152,109 -48,0 -107,-18 -160,-43l10 -18c18,8 41,13 74,13 86,0 198,-84 213,-163 -3,-8 -10,-15 -18,-25 -25,-30 -41,-56 -56,-81 13,-25 25,-46 36,-64l5 0c36,74 71,117 145,117l13 0 0 0 53 0 0 0 0 0 -8 3zm-371 79c5,-36 8,-74 8,-109l0 -53c0,-99 -13,-244 -23,-338 18,-20 43,-43 64,-58l5 3c13,119 18,257 18,384 0,33 -3,66 -5,89 -3,30 -20,53 -56,89l-8 -3 0 0 0 0 -3 -3zm-384 -158c3,46 25,84 104,84 51,0 91,-13 140,-36 8,-3 13,-8 13,-13 0,-30 -23,-69 -61,-104 -36,-33 -86,-64 -130,-81 -15,-8 -20,-13 -20,-20 0,-13 18,-41 33,-61l5 0c51,28 109,69 152,112 38,41 64,84 64,130 0,33 -10,66 -28,97 -56,28 -117,51 -178,51 -74,0 -122,-36 -122,-114 0,-8 0,-23 3,-41l25 0 0 0 0 0 0 -3zm-132 -132l46 74c18,28 33,56 33,104l0 61c0,48 -30,99 -81,152 -38,36 -74,51 -107,51 -48,0 -102,-15 -165,-43l8 -18c20,5 43,10 71,10 91,0 183,-66 226,-147 5,-10 8,-18 8,-23 0,-10 -5,-20 -10,-28 -23,-43 -48,-84 -76,-119 15,-23 30,-46 46,-69l3 0 0 -5z"/>
  <circle class="fil3 str0" cx="4948" cy="2408" r="1895"/>
  <rect class="fil4 str1" x="2563" y="1734" width="2712" height="1143"/>
  <path class="fil5" d="M3123 2608l0 -606 119 0 249 406 0 -406 113 0 0 606 -123 0 -246 -399 0 399 -113 0zm615 0l0 -601 123 0 0 499 304 0 0 102 -427 0zm514 0l0 -606 196 0c74,0 123,3 145,9 35,9 64,29 87,59 23,30 35,70 35,118 0,37 -7,68 -20,94 -14,25 -31,45 -51,60 -21,14 -42,24 -63,29 -29,6 -71,9 -127,9l-80 0 0 229 -123 0zm123 -504l0 173 67 0c48,0 80,-3 96,-10 16,-6 29,-16 38,-30 9,-14 14,-29 14,-47 0,-22 -6,-40 -19,-55 -13,-14 -29,-23 -49,-27 -15,-3 -44,-4 -88,-4l-59 0z"/>
  <g id="_2171934283760">
   <path class="fil6" d="M4140 4718l-789 0 0 -278c0,-81 66,-147 147,-147l495 0c81,0 147,66 147,147l0 278zm0 0z"/>
   <path class="fil7" d="M4929 4718l-789 0 0 -642c0,-81 66,-147 147,-147l496 0c81,0 147,66 147,147l0 642zm0 0z"/>
   <path class="fil8" d="M5717 4718l-789 0 0 -1033c0,-81 66,-147 147,-147l496 0c81,0 147,66 147,147l0 1033zm0 0z"/>
   <path class="fil9" d="M6506 4718l-789 0 0 -1625c0,-81 66,-147 147,-147l495 0c81,0 147,66 147,147l0 1625zm0 0z"/>
   <path class="fil10" d="M5931 1285l793 0c25,0 36,-30 18,-47l-206 -181c-12,-11 -12,-29 0,-40l206 -181c18,-16 7,-47 -18,-47l-793 0 0 496zm0 0z"/>
   <path class="fil11" d="M5994 1518l-859 467c-77,42 -98,115 -124,209l-171 604 419 -172 163 -491 432 -263c121,-73 178,-218 141,-354l0 0zm0 0z"/>
   <path class="fil12" d="M5994 1518l-99 54c-17,85 -68,162 -146,210l-394 239c-25,15 -43,38 -53,66l-56 170c-58,177 -191,319 -364,390l-43 151 419 -172 163 -491 432 -263c121,-73 178,-218 141,-354l0 0zm0 0z"/>
   <path class="fil13" d="M5259 2626l247 292c41,54 77,92 69,152l-58 468 -151 0 -39 -402c-2,-24 -18,-45 -40,-55l-447 -284 419 -172zm0 0z"/>
   <path class="fil14" d="M4840 2798l-24 443c-2,37 4,62 -11,89l-285 599 160 0 428 -569c25,-29 28,-69 36,-105l114 -629 -419 172zm0 0z"/>
   <path class="fil15" d="M5228 1613l70 137c33,64 8,144 -57,177l-54 28c-64,33 -143,8 -176,-57l-70 -137c-33,-64 -8,-144 57,-177l54 -28c64,-33 143,-8 176,57zm0 0z"/>
   <path class="fil16" d="M6782 1193l-177 -156 177 -156c28,-24 37,-62 24,-96 -13,-34 -45,-57 -82,-57l-732 0 0 -31c0,-34 -27,-61 -61,-61 -34,0 -61,27 -61,61l0 819 -499 271c-3,-22 -9,-43 -20,-64l-70 -137c-48,-94 -164,-131 -258,-83l-54 28c-46,23 -79,63 -95,112 -16,49 -12,101 12,146l70 137c16,32 41,57 69,75 -37,50 -55,112 -73,176l-13 46c-9,32 10,66 42,75 6,2 11,2 17,2 26,0 51,-17 58,-44l13 -46c27,-94 43,-144 95,-172l93 -51 12 -6c4,-2 7,-4 11,-6l665 -361c-4,83 -49,162 -123,206l-432 263c-1,0 -1,1 -1,1l-135 82c-29,17 -38,55 -20,83 16,27 51,37 78,23l-102 309 -75 31 -203 83 58 -207c9,-32 -10,-66 -42,-75 -32,-9 -66,10 -75,42l-92 327c-1,4 -2,9 -2,13l-24 444c-1,17 3,49 -5,65l-268 565 -195 0c-114,0 -207,93 -207,207l0 175c-26,-12 -55,-19 -86,-19l-495 0c-114,0 -207,93 -207,207l0 217 -146 0c-34,0 -61,27 -61,61 0,34 27,61 61,61l3579 0c34,0 61,-27 61,-61 0,-34 -27,-61 -61,-61l-158 0 0 -1565c0,-114 -93,-207 -207,-207l-367 0 0 -1059c67,-91 92,-211 61,-324 -5,-18 -18,-33 -35,-40 -8,-4 -17,-5 -26,-5l0 -111 732 0c37,0 69,-22 82,-57 13,-34 4,-72 -24,-96l0 0zm-1792 486c6,-18 18,-33 35,-41l54 -28c10,-5 21,-8 32,-8 26,0 50,14 63,38l70 137c16,32 6,71 -23,91l-20 11 -42 21c-35,18 -77,4 -95,-31l-70 -137c-9,-17 -10,-36 -4,-54l0 0zm-122 2208c-21,-9 -43,-16 -67,-18l67 -89 0 106zm288 -489c29,-35 37,-76 44,-109 2,-8 32,-171 32,-171 0,0 28,18 31,19 2,1 4,3 4,5l33 336 -203 0 60 -80zm359 -335l-51 414 -42 0 -34 -347c-4,-44 -32,-83 -72,-103l-61 -39 41 -225c0,0 171,204 175,209 35,46 48,65 44,91l0 0zm-656 294c12,-37 18,-74 17,-113l22 -405 281 -115 -51 283c0,1 0,2 0,2l-42 234c-6,24 -10,61 -25,81l-410 545 -34 0 243 -512zm-1447 1083c0,-47 38,-86 86,-86l495 0c47,0 86,38 86,86l0 217 -667 0 0 -217zm789 0l0 -364c0,-47 39,-86 86,-86l495 0c47,0 86,38 86,86l0 581 -667 0 0 -217 0 0zm2244 -1347l0 1565 -667 0 0 -364c0,-34 -27,-61 -61,-61 -34,0 -61,27 -61,61l0 364 -667 0 0 -972c0,-47 38,-86 86,-86l495 0c47,0 86,38 86,86l0 304c0,34 27,61 61,61 34,0 61,-27 61,-61l0 -897c0,-47 39,-86 86,-86l67 0c0,0 0,0 1,0 0,0 0,0 1,0l427 0c47,0 86,39 86,86zm-581 -207c-114,0 -207,93 -207,207l0 404c-22,-10 -45,-16 -70,-18l50 -400c10,-78 -30,-130 -69,-180 -4,-5 -240,-285 -240,-285l145 -438 399 -242 0 952 -7 0zm128 -1660l0 -375 642 0 -138 122c-19,17 -30,40 -30,66 0,25 11,49 30,66l138 122 -642 0 0 0zm0 0z"/>
  </g>
 </g>
</svg>
