<?xml version="1.0" encoding="UTF-8"?>
<!DOCTYPE svg PUBLIC "-//W3C//DTD SVG 1.1//EN" "http://www.w3.org/Graphics/SVG/1.1/DTD/svg11.dtd">
<!-- Creator: CorelDRAW 2017 -->
<svg xmlns="http://www.w3.org/2000/svg" xml:space="preserve" width="9.40646cm" height="5.29166cm" version="1.1" style="shape-rendering:geometricPrecision; text-rendering:geometricPrecision; image-rendering:optimizeQuality; fill-rule:evenodd; clip-rule:evenodd"
viewBox="0 0 9406 5292"
 xmlns:xlink="http://www.w3.org/1999/xlink"
 enable-background="new 0 0 512 512">
 <defs>
  <style type="text/css">
   <![CDATA[
    .fil8 {fill:black}
    .fil3 {fill:#008081}
    .fil0 {fill:#E6E7E8}
    .fil7 {fill:#EEFAFF}
    .fil5 {fill:#FF9256}
    .fil6 {fill:#FFF2A0}
    .fil4 {fill:#2B2A29;fill-rule:nonzero}
    .fil2 {fill:#373435;fill-opacity:0.031373}
    .fil1 {fill:#2B2A29;fill-opacity:0.101961}
   ]]>
  </style>
 </defs>
 <g id="Layer_x0020_1">
  <metadata id="CorelCorpID_0Corel-Layer"/>
  <polygon class="fil0" points="0,0 9406,0 9406,5291 0,5291 "/>
  <path class="fil1" d="M4131 5291l-55 0 -5 0 -77 0 -20 0 -14 0 -2 0 -42 0 -69 0 -224 0 -57 0 -193 0 -55 0 -50 0 0 0 -38 0 -5 0 -14 0 -24 0 -29 0 -14 0 -91 0 -6 0 -2 0 -2 0 -4 0 -64 0 -19 0 -10 0 -10 0 -42 0 -26 0 -11 0 -4 0 -4 0 -3 0 -20 0 -25 0 -2 0 -29 0 -8 0 -15 0 -1 0 -5 0 -10 0 -3 0 -24 0 -6 0 -21 0 -4 0 -1 0 -1 0 -21 0 -7 0 -8 0 -6 0 0 0 -43 0 -9 0 -9 0 -16 0 -8 0 -16 0 -1 0 -8 0 -12 0 -7 0 -44 0 -35 0 -11 0 -42 0 -18 0 -13 0 -12 0 -5 0 -44 0 -1 0 -67 0 -10 0 -11 0 -2 0 -15 0 -10 0 -2 0 -2 0 -18 0 -9 0 -38 0 -2 0 0 0 -1 0 -2 0 -16 0 -17 0 -14 0 -11 0 -22 0 -16 0 -29 0 -37 0 0 0 -13 0 -12 0 -12 0 -65 0 -35 0 -1 0 -1 0 0 0 0 0 -29 0 -11 0 -51 0 -3 0 -11 0 -15 0 -12 0 -47 0 -13 0 -19 0 -28 0 -4 0 -16 0 -7 0 0 0 -7 0 -19 0 -25 0 -2 0 -25 0 -1 0 -1 0 -3 0 -19 0 -28 0 -34 0 -2 0 -5 0 -16 0 -9 0 -11 0 -9 0 -3 0 -2 0 -12 0 -9 0 0 0 -12 0 -11 0 -10 0 -9 0 -18 0 0 0 -22 0 -5 0 -4 0 -12 0 -1 0 0 0 -1 0 -26 0 -20 0 -21 0 -11 0 -15 0 -7 0 -12 0 -30 0 -9 0 -4 0 -5 0 -9 0 -13 0 -15 0 -29 0 -15 0 -13 0 -25 0 -4 0 -2 0 -10 0 -10 0 -26 0 -37 0 -4 0 -39 0 -34 0 -59 0 -22 0 -27 0 -4 0 -18 0 -15 0 0 0 -10 0 -8 0 0 0 -1 0 -34 0 -8 0 -36 0 -1 0 -6 0 -2 0 -10 0 -2 0 -2 0 -3 0 -69 0 -6 0 -74 0 -9 0 -4 0 -16 0 -11 0 -1 0 -8 0 -51 0 -17 0 -70 0 -2 0 -5 0 0 0 -5 0 -6 0 -23 0 -26 0 -27 0 -8 0 -24 0 -1 0 0 0 0 -48 0 -67 0 0 0 -36 0 -9 0 -23 0 -5 0 -22 0 -38 0 -5 0 -29 0 -18 0 -24 0 -15 0 -16 0 -14 0 -26 0 -37 0 -35 0 0 0 -41 0 -31 0 -1 0 -10 0 -61 0 -34 0 -37 0 -18 0 -2 0 -24 0 -28 0 -44 0 -28 0 -6 0 -7 0 -20 0 -40 0 -72 0 -9 0 -22 0 -40 0 0 0 -70 0 -70 0 -46 0 -23 0 -19 0 -47 0 -66 0 -63 0 -59 0 -56 0 -31 0 -21 0 0 0 -31 0 -17 0 -47 0 0 0 -43 0 -26 0 -12 0 -35 0 0 0 -31 0 -28 0 -24 0 0 0 -38 0 -14 0 0 0 -11 0 -7 0 -3 0 -344 0 -106 0 -157 0 -179 1696 -1449 -4 5 -3 6 -3 7 -2 8 -1 9 -1 11 0 12 0 13 0 15 1 16 1 18 1 19 1 21 0 23 0 24 0 27 0 35 0 42 0 48 0 22 470 -392 -3 7 -2 8 -2 8 -2 8 -2 8 -1 8 -1 8 -1 8 -1 9 -1 9 -1 9 0 9 0 9 0 9 0 9 0 9 0 389 0 4 0 7 0 7 0 6 0 15 0 0 0 7 0 35 0 0 0 0 0 7 0 19 60 -48 -4 7 -4 7 -4 7 -4 7 -4 7 -4 7 -4 7 -4 7 -4 7 -4 7 -4 7 -4 7 -4 7 -4 7 -4 7 0 1 0 58 398 -316 11 -6 13 -5 15 -4 18 -3 21 -2 23 -1 26 -1 29 0 33 0 36 0 22 0 28 0 33 0 38 0 42 0 46 0 50 0 53 0 56 0 58 0 60 0 62 0 63 0 64 0 65 0 65 0 64 0 64 0 63 0 61 0 59 0 57 -1 54 -1 51 -1 48 -1 44 -1 40 -1 35 -2 30 -2 25 -2 19 -2 13 -3 -812 591 9 -1 23 -2 25 -1 27 -1 28 0 30 0 31 0 32 0 33 1 33 1 34 1 34 1 34 1 34 1 34 1 34 1 33 1 32 0 31 0 30 0 29 0 28 -1 26 -1 9 -1 694 -488 -9 8 -8 9 -6 11 -4 12 -1 12 1 12 4 12 6 11 8 9 9 8 5 3 399 -278 -17 13 -16 14 -16 14 -15 15 -14 16 -14 16 -13 17 -12 18 -11 18 -10 19 -8 17 182 -126 -15 11 -14 12 -13 12 -13 13 -12 13 -12 14 -11 15 -10 15 -9 16 -9 16 -6 12 587 -406 -15 11 -15 12 -15 12 -14 13 -14 13 -14 13 -13 14 -13 14 -13 15 -12 15 -363 250 -1 1 -8 13 -8 13 -7 13 -7 14 -3 8 578 -397 -15 11 -15 11 -14 12 -14 12 -13 12 -13 13 -13 13 -12 13 -12 14 -12 14 -11 15 -11 15 -1 2 -440 302 -1 4 -2 15 -1 8 640 -438 -12 8 -12 8 -11 9 -11 9 -11 9 -11 10 -10 10 -10 10 -10 11 8 5 8 5 8 5 8 5 8 5 8 5 7 5 7 5 7 6 7 6 7 6 7 6 6 6 6 6 6 6 6 6 7 10 5 11 3 12 0 12 -2 12 -4 11 -6 10 -8 9 -10 7 -1149 772 1 16 3 18 3 18 4 18 5 17 6 17 7 17 8 16 9 16 9 16 10 15 11 15 12 14 2 2 1748 -1152 8 -5 8 -5 8 -5 8 -5 -1779 1172 9 10 13 13 13 12 14 12 15 11 4 2 252 -165 11 -6 12 -4 12 -1 12 1 8 3 1444 -942 -14 9 -13 10 -12 10 -12 11 -11 11 -9 8 -1362 888 3 1 9 8 8 9 6 11 4 12 1 12 0 11 1 11 2 11 3 11 3 11 4 11 4 8 2083 -1342 -14 11 -13 12 -12 13 -11 14 -9 15 -8 16 -6 17 -5 18 -1 8 114 -73 -10 7 -9 8 -8 9 -7 10 -6 10 -5 11 -4 11 -3 12 -2 12 -1 13 0 5 89 -57 -9 8 -8 9 -6 11 -4 12 -1 12 1 12 4 12 6 11 8 9 9 8 11 6 12 4 12 1 12 -1 12 -4 11 -6 -92 58 9 5 11 4 12 3 12 2 13 1 13 -1 12 -2 12 -3 11 -4 11 -5 10 -6 -120 76 14 4 18 3 19 1 19 -1 18 -3 18 -5 17 -6 16 -8 15 -9 -1631 1021 1 0 14 1 14 0 14 0 14 -1 14 -2 14 -2 14 -3 14 -4 13 -4 13 -5 1 0 104 -65 10 -5 11 -3 11 -1 11 1 11 3 10 5 9 7 11 9 11 9 12 8 12 8 12 7 12 6 13 6 13 5 13 5 13 4 14 4 14 3 14 2 14 2 14 1 14 0 0 0 14 0 14 -1 14 -2 14 -2 14 -3 14 -4 14 -4 6 -2 110 -67 7 -4 8 -3 8 -2 8 -1 8 0 8 1 8 2 8 4 7 5 6 5 6 6 5 7 4 8 3 8 2 8 3 17 5 16 6 16 8 15 9 14 10 14 12 13 13 12 14 11 4 3 339 -202 11 -6 12 -4 12 -1 12 1 12 4 11 6 9 8 8 9 6 11 4 12 1 12 0 12 -1 12 -1 12 -2 12 -2 12 -3 12 -3 12 -4 11 -4 11 -5 11 -5 11 -6 11 -6 11 -6 10 -7 10 -7 10 8 1 8 1 8 1 8 1 8 1 8 0 8 0 8 0 19 0 19 -1 19 -2 19 -3 18 -4 18 -5 18 -6 17 -7 17 -8 17 -8 16 -9 -200 117 3 0 22 -1 22 -2 22 -3 22 -4 21 -5 21 -6 21 -7 20 -8 20 -9 19 -10 19 -10 -215 124 12 0 25 -2 25 -3 25 -4 24 -6 24 -7 23 -8 23 -9 22 -10 22 -11 21 -12 -1019 587 10 -1 13 -2 14 -2 14 -2 14 -2 15 -2 15 -2 15 -3 15 -3 15 -3 15 -3 15 -3 15 -4 15 -4 15 -4 14 -5 14 -5 13 -5 13 -6 12 -6 12 -6 -403 231 2 12 2 14 2 14 2 14 2 13 2 13 3 15 3 15 4 15 4 14 4 14 5 14 5 14 6 14 6 13 6 13 7 13 7 13 7 13 8 12 8 12 8 12 9 12 9 12 9 11 10 11 3 4 272 -150 -10 6 -10 6 -10 6 -10 7 -9 7 -9 7 -9 7 -9 8 -8 8 -8 8 -8 8 -8 9 -7 9 -7 9 -7 9 -116 64 11 10 8 7 258 -142 -20 12 -19 13 -18 15 -17 16 -16 17 -14 18 -13 19 -11 20 -8 17 168 -92 17 -9 18 -7 18 -6 19 -5 19 -4 19 -2 19 -1 24 1 24 3 23 6 23 8 22 9 21 11 20 13 18 15 17 16 15 17 14 19 12 20 10 21 8 22 6 22 3 23 1 8 2 7 3 7 0 1 62 -33 -7 4 -55 29 3 6 5 6 5 6 6 5 7 4 7 3 7 2 8 1 8 0 8 -1 8 -2 7 -3 18 -9 11 -5 11 -4 12 -4 12 -3 12 -2 12 -1 12 0 15 1 15 2 15 3 14 4 14 5 14 6 13 7 13 8 12 9 11 9 10 10 10 11 9 11 8 12 7 13 6 13 -120 62 194 0 -121 62 121 0 12 -1 12 -4 -2098 1066 -13 0 -111 0 -176 0 -381 0 -41 0 0 0 -50 0 -68 0 0 0 -45 0 -262 0 -161 0 -61 0 -18 0 -37 0 -1 0 -51 0 -7 0zm-1993 -3622l96 -77 0 0 -5 7 -5 7 -5 7 -5 7 -5 7 -4 7 -4 7 -4 7 -60 48m0 -69l176 -141 0 0 -5 6 -5 6 -5 6 -5 7 -5 7 -5 7 -5 7 -5 7 -38 54 0 0m0 0l-96 77m219 -234l-5 6 -5 6 -3 4 -2 3 -5 6 -5 6 -5 6 -5 7 -5 7m0 0l-176 141m0 -28l264 -213 0 0 0 0 -1 1 -44 47 0 0 0 0m94 -96l-38 36 -11 11m0 0l-264 213m0 -11l376 -303 -6 5 -6 5 -7 5 -7 5 -6 5 -5 4 0 0 -2 1 -6 5 -6 5 -6 5 -6 5 0 0 0 0m51 -43l52 -41 1 -1 -77 62m0 0l76 -61m1 -1l0 0 54 -38 56 -36 58 -34 -379 305"/>
  <path class="fil2" d="M561 4649c18,28 30,53 41,81 8,18 13,48 53,48 13,0 28,-3 43,-13 18,-8 30,-23 36,-43l15 -53 38 -18 3 3c-5,20 -5,38 -5,53 0,46 38,61 69,61 18,0 33,-8 33,-25 0,-20 -10,-56 -20,-89 18,-18 36,-36 56,-51l3 3c10,38 15,76 15,102 0,25 -10,51 -20,69 -18,36 -51,64 -91,64 -30,0 -64,-15 -86,-43l-3 0c-23,28 -56,51 -109,51l-18 0c-3,36 -10,61 -23,84 -33,64 -127,107 -216,107 -124,0 -185,-71 -185,-168 0,-58 18,-114 48,-152l25 10c-18,36 -30,69 -30,102 0,89 74,132 155,132 76,0 173,-51 191,-107 -5,-64 -30,-91 -66,-150 10,-18 25,-38 43,-58l3 0 0 0 0 0 5 3 0 0 0 0 0 0zm1430 -335c25,15 51,36 76,58 -15,20 -30,38 -53,53 -25,-20 -51,-38 -76,-56 18,-20 36,-38 51,-56l3 0 0 0 0 0 0 0zm13 244c-43,0 -76,28 -76,48 0,43 84,58 185,58 -13,-51 -56,-107 -109,-107zm-94 236c56,0 104,-3 140,-10 41,-10 76,-30 76,-46 0,-5 0,-8 -3,-13 -23,3 -48,3 -74,3 -74,0 -132,-18 -152,-58 -5,-10 -10,-25 -10,-38 0,-41 18,-81 48,-107 25,-23 53,-36 84,-36 51,0 94,43 122,107 15,36 28,76 28,130 0,36 -10,64 -30,86 -41,38 -114,53 -229,53l-51 0 0 0 -13 0c-28,0 -48,-5 -64,-18l-3 0c0,5 3,13 3,18 0,25 -8,58 -25,84 -51,76 -107,109 -152,109 -48,0 -107,-18 -160,-43l10 -18c18,8 41,13 74,13 86,0 198,-84 213,-163 -3,-8 -8,-15 -18,-25 -25,-30 -41,-56 -56,-81 13,-25 25,-46 36,-64l5 0c36,74 71,117 145,117l10 0 0 0 53 0 0 0 0 0 -8 0 0 0 0 0 0 0zm-371 79c5,-36 8,-74 8,-109l0 -53c0,-99 -13,-244 -23,-338 18,-20 43,-43 64,-58l5 3c13,119 18,257 18,384 0,33 -3,66 -5,89 -3,30 -20,53 -56,89l-8 -3 0 0 0 0 -3 -3 0 0 0 0 0 0zm-384 -158c3,46 25,84 104,84 51,0 91,-13 140,-36 8,-5 13,-8 13,-13 0,-30 -23,-69 -61,-104 -36,-33 -86,-64 -130,-81 -15,-8 -20,-13 -20,-20 0,-13 18,-43 33,-61l5 0c51,28 109,69 152,112 38,41 64,84 64,130 0,33 -10,66 -28,97 -56,28 -117,51 -178,51 -74,0 -122,-33 -122,-114 0,-8 0,-23 3,-41l25 0 0 0 0 0 0 -3 0 0 0 0 0 0zm-132 -132l46 74c18,28 33,56 33,104l0 61c0,48 -30,99 -81,152 -38,36 -74,51 -107,51 -48,0 -102,-15 -165,-43l8 -18c20,5 43,10 71,10 89,0 183,-66 224,-147 5,-10 8,-18 8,-23 0,-10 -5,-20 -10,-28 -23,-43 -48,-84 -76,-119 15,-23 30,-46 46,-69l5 0 0 0 0 0 0 -5 0 0 0 0 0 0z"/>
  <g id="_1962665826688">
   <path class="fil0" d="M2722 1146l-58 34c20,-11 38,-24 58,-34zm-58 34l-56 36c18,-13 38,-25 56,-36zm-56 36l-54 38c18,-13 36,-27 54,-38zm-54 38l-52 42c16,-14 34,-27 52,-42zm-52 42l-51 43c16,-14 33,-29 51,-43zm-51 43l-49 47c16,-16 33,-31 49,-47zm-49 47l-45 49c14,-16 31,-33 45,-49zm-45 49l-43 51c14,-18 29,-34 43,-51zm-43 51l-42 52c13,-18 27,-36 42,-52zm-42 52l-38 54c13,-18 25,-36 38,-54zm-38 54l-36 56c11,-20 24,-38 36,-56zm-36 56l-33 58c11,-20 22,-40 33,-58zm-33 58l-31 60c9,-20 20,-40 31,-60zm-31 60l-27 61c9,-22 18,-42 27,-61zm-27 61l-25 63c7,-22 16,-42 25,-63zm-25 63l-22 65c7,-22 14,-43 22,-65zm-22 65l-18 67c5,-22 13,-43 18,-67zm-18 67l-16 67c5,-24 9,-45 16,-67zm-16 67l-13 69c4,-24 7,-45 13,-69zm-13 69l-9 71c2,-24 5,-47 9,-71zm-9 71l-5 71c2,-24 4,-47 5,-71zm-5 71l-2 72c0,-24 0,-49 2,-72zm-2 72l2 72c-2,-24 -2,-47 -2,-72zm2 72l5 71c-2,-24 -4,-47 -5,-71zm5 71l9 71c-4,-24 -7,-47 -9,-71zm9 71l13 69c-5,-24 -9,-45 -13,-69zm13 69l16 67c-5,-22 -11,-45 -16,-67zm16 67l18 67c-7,-22 -13,-43 -18,-67zm18 67l22 65c-7,-22 -14,-43 -22,-65zm22 65l25 63c-9,-22 -16,-42 -25,-63zm25 63l27 61c-9,-20 -20,-42 -27,-61zm27 61l31 60c-11,-20 -22,-40 -31,-60zm31 60l33 58c-11,-20 -24,-38 -33,-58zm33 58l36 56c-13,-18 -25,-38 -36,-56zm36 56l38 54c-13,-18 -27,-36 -38,-54zm38 54l42 52c-14,-18 -27,-34 -42,-52zm42 52l43 51c-14,-16 -29,-33 -43,-51zm43 51l45 49c-16,-16 -31,-33 -45,-49zm45 49l49 47c-16,-14 -33,-31 -49,-47zm49 47l51 43c-16,-14 -34,-29 -51,-43zm51 43l52 42c-18,-13 -36,-27 -52,-42zm52 42l54 38c-18,-13 -36,-25 -54,-38zm54 38l56 36c-20,-11 -38,-24 -56,-36zm56 36l58 34c-20,-11 -40,-22 -58,-34zm58 34l60 31c-20,-9 -40,-20 -60,-31zm60 31l61 27c-20,-9 -42,-18 -61,-27zm61 27l63 25c-22,-7 -42,-16 -63,-25zm63 25l65 22c-22,-7 -43,-14 -65,-22zm65 22l65 18c-22,-5 -43,-13 -65,-18zm65 18l67 16c-22,-5 -45,-9 -67,-16zm67 16l69 13c-24,-4 -45,-7 -69,-13zm69 13l69 9c-24,-2 -47,-5 -69,-9zm69 9l71 5c-24,-2 -47,-4 -71,-5zm71 5l72 2c-24,0 -47,0 -72,-2zm72 2l72 -2c-24,2 -47,2 -72,2zm72 -2l71 -5c-24,2 -47,4 -71,5zm71 -5l69 -9c-24,4 -47,7 -69,9zm69 -9l69 -13c-22,5 -45,9 -69,13zm69 -13l67 -16c-22,5 -45,11 -67,16zm67 -16l65 -18c-22,7 -43,13 -65,18zm65 -18l65 -22c-22,7 -43,14 -65,22zm65 -22l63 -25c-20,9 -42,16 -63,25zm63 -25l61 -27c-20,9 -42,20 -61,27z"/>
   <path class="fil3" d="M2138 1200l0 1239c0,96 43,109 181,121 90,8 223,-8 297,16 27,155 11,500 10,676 0,112 -63,85 -166,84 -118,0 -763,-20 -766,24l-8 173c-3,124 -34,139 108,138l1117 -5c42,-61 22,-435 22,-540 0,-93 6,-839 -5,-895 -12,-62 -51,-65 -124,-67 -224,-5 -294,36 -294,-80l0 -510c0,-97 50,-98 252,-98 206,0 1427,17 1534,-13l-1 -254c0,-83 29,-146 -64,-146l-2074 0c-14,39 -18,86 -18,135zm1967 1909l188 0c2,-76 14,-268 -3,-331 -376,0 -297,-65 -306,256 -3,98 28,75 121,75zm-566 -763l0 1229c0,129 28,96 327,97 521,2 424,88 431,-306 2,-135 19,-107 -368,-107 -75,0 -90,-16 -90,-91 0,-595 -40,-530 184,-530 75,0 206,21 261,-20l7 -24c0,-3 1,-6 1,-9l-2 -302c1,-74 12,-90 -61,-100 -134,-19 -372,-12 -509,-11 -159,2 -181,-4 -181,174zm-1840 857c47,28 399,16 490,16 363,0 324,52 324,-311 0,-262 23,-224 -386,-224 -102,0 -105,-7 -105,-109l0 -1375c0,-60 2,-91 -23,-132 -376,-5 -312,-54 -312,216 0,252 -13,1840 5,1903l7 16zm954 -1578c-24,52 -40,320 -13,385 36,84 305,17 384,52 51,45 27,298 27,379 0,205 -16,1158 17,1226 59,14 300,20 341,-7 49,-56 -20,-1411 26,-1596 166,-35 765,28 858,-28 16,-43 11,-369 3,-420 -41,-15 -714,-16 -815,-16 -200,0 -657,-9 -828,27z"/>
   <path class="fil4" d="M1984 4225l-331 0 0 -19 54 0 0 -356 -54 0 0 -19 209 0 0 19 -59 0 0 356 37 0c21,0 36,-1 46,-3 10,-2 21,-9 33,-19 12,-11 22,-24 31,-40 8,-16 16,-34 22,-53l18 0 -6 134zm309 -393l5 106 -24 0c-12,-35 -26,-59 -42,-73 -16,-14 -35,-21 -57,-21 -19,0 -35,6 -47,18 -12,12 -19,26 -19,42 0,19 6,33 19,40 13,7 35,14 67,21 49,10 81,26 98,47 17,21 25,48 25,80 0,38 -11,71 -33,98 -22,27 -53,41 -92,41 -28,0 -54,-9 -76,-27 -11,9 -21,17 -30,25l-19 0 0 -115 22 0c17,65 51,97 101,97 27,0 47,-8 61,-23 14,-15 21,-33 21,-52 0,-11 -3,-20 -9,-29 -6,-9 -14,-15 -22,-21 -8,-5 -31,-12 -68,-19 -37,-8 -65,-22 -82,-43 -17,-21 -26,-47 -26,-79 0,-34 11,-62 32,-86 21,-23 48,-35 79,-35 24,0 48,8 72,25 8,-5 16,-11 25,-18l19 0zm129 239l145 0 0 69 -145 0 0 -69zm288 134l0 -356 -50 0 0 -19 200 0c58,0 104,18 138,55 34,37 51,83 51,139 0,29 -5,56 -15,82 -10,26 -26,49 -48,70 -21,21 -43,34 -66,40 -22,6 -50,9 -83,9l-177 0 0 -19 50 0zm96 -356l0 356 31 0c48,0 77,-14 86,-42 10,-28 15,-76 15,-143 0,-53 -3,-91 -9,-114 -6,-23 -15,-38 -28,-46 -12,-7 -28,-11 -47,-11l-49 0zm283 -19l184 0 0 19 -46 0 89 166 67 -133c1,-1 3,-5 5,-11 3,-6 4,-10 4,-13 0,-6 -6,-9 -18,-9l-16 0 0 -19 101 0 0 19c-16,0 -27,2 -33,6 -6,4 -12,13 -20,27l-82 159 0 165 61 0 0 19 -218 0 0 -19 61 0 0 -160 -112 -197 -28 0 0 -19zm576 0l157 233 0 -170c0,-18 -2,-30 -5,-35 -4,-5 -13,-8 -28,-8l-19 0 0 -19 120 0 0 19 -14 0c-15,0 -24,2 -28,7 -4,5 -6,14 -6,27l0 347 -21 0 -234 -347 0 285c0,16 2,26 5,31 3,5 12,7 28,7l23 0 0 19 -125 0 0 -19 16 0c16,0 25,-3 29,-8 3,-5 5,-19 5,-42l0 -272c0,-15 -1,-24 -4,-28 -3,-4 -11,-6 -25,-6l-21 0 0 -19 149 0zm488 284l-124 0 -16 40c-7,16 -10,28 -10,35 0,10 10,15 29,15l22 0 0 19 -127 0 0 -19 11 0c15,0 25,-3 31,-8 5,-5 12,-17 19,-36l138 -339 17 0 145 383 41 0 0 19 -194 0 0 -19 52 0 -35 -91zm-115 -20l107 0 -52 -137 -56 137z"/>
   <path class="fil5" d="M7432 3921c-46,0 -88,12 -125,34 -14,-158 -159,-281 -321,-281 -129,0 -252,79 -298,191 -121,-66 -211,-184 -237,-328 -20,-112 -39,-282 -34,-395 6,-164 50,-400 90,-543l0 0 -337 -84 -337 84 0 0c40,145 84,379 90,543 4,113 -14,283 -34,395 -26,144 -116,262 -237,328 -47,-112 -169,-191 -298,-191 -162,0 -306,124 -321,281 -37,-22 -79,-34 -125,-34 -137,0 -260,111 -260,248l3046 0c0,-137 -123,-248 -260,-248z"/>
   <path class="fil6" d="M5272 2690l-2 4c-54,24 -114,38 -178,38 -239,0 -446,-194 -446,-433 0,-239 206,-433 446,-433 30,0 58,3 86,9 -16,-41 -24,-86 -24,-132 0,-205 179,-371 384,-371 42,0 83,7 123,20l1 -2c112,-160 298,-265 508,-265 210,0 396,105 508,265l1 2c40,-13 81,-20 123,-20 205,0 384,166 384,371 0,47 -9,91 -24,132 28,-6 57,-9 86,-9 239,0 446,194 446,433 0,239 -206,433 -446,433 -63,0 -123,-14 -178,-38l-7 -1c-41,25 -88,39 -137,39 -127,0 -245,-96 -258,-220 -69,63 -158,96 -249,96 -95,0 -182,-36 -248,-95 -66,59 -152,95 -248,95 -91,0 -180,-33 -249,-96 -14,124 -131,220 -258,220 -51,0 -101,-16 -142,-42l0 0z"/>
   <circle class="fil7" cx="7420" cy="1371" r="124"/>
   <circle class="fil8" cx="4906" cy="1618" r="62"/>
   <path class="fil8" d="M6632 2614c51,106 165,181 293,181 49,0 98,-12 143,-33 57,22 117,33 179,33 274,0 508,-221 508,-495 0,-277 -238,-498 -512,-495 3,-20 4,-41 4,-62 0,-241 -208,-433 -446,-433 -33,0 -65,4 -98,11 -129,-162 -325,-258 -534,-258 -208,0 -405,96 -534,258 -32,-7 -65,-11 -98,-11 -237,0 -446,192 -446,433 0,21 1,42 4,62 -273,-2 -512,217 -512,495 0,274 234,495 508,495 62,0 122,-11 179,-33 45,22 93,33 143,33 127,0 241,-74 293,-181 24,13 48,25 74,33 22,86 47,207 63,326 -130,16 -356,49 -356,168 0,120 230,153 366,169 -6,73 -16,150 -28,215 -18,101 -73,190 -154,251 -70,-100 -193,-165 -320,-165 -168,0 -316,111 -366,258 -26,-7 -53,-11 -80,-11 -174,0 -322,142 -322,310 0,34 28,62 62,62l1244 0c34,0 62,-28 62,-62 0,-34 -28,-62 -62,-62l-1170 0c29,-71 103,-124 186,-124 33,0 65,9 94,25 18,11 41,11 60,2 19,-10 31,-28 33,-50 11,-124 127,-225 259,-225 103,0 204,64 241,153 7,16 20,29 37,35 17,6 35,4 50,-4 142,-77 240,-213 268,-371 12,-69 23,-150 29,-226 42,3 86,4 130,5l0 100c0,34 28,62 62,62 34,0 62,-28 62,-62l0 -100c44,-1 88,-3 130,-5 6,77 17,158 29,226 29,159 126,294 268,371 15,8 34,10 50,4 17,-6 30,-18 37,-35 37,-88 138,-153 241,-153 132,0 248,101 259,225 2,21 14,40 33,50 19,10 41,9 60,-2 28,-17 61,-25 94,-25 83,0 157,53 186,124l-1170 0c-34,0 -62,28 -62,62 0,34 28,62 62,62l1244 0c34,0 62,-28 62,-62 0,-168 -147,-310 -322,-310 -27,0 -54,4 -80,11 -50,-147 -197,-258 -366,-258 -128,0 -250,65 -320,165 -81,-61 -136,-150 -154,-251 -12,-65 -22,-143 -28,-215 132,-15 366,-49 366,-169 0,-118 -222,-152 -356,-168 16,-119 41,-240 63,-326 26,-9 51,-20 74,-33zm-771 572c-110,-13 -178,-31 -216,-45 37,-14 105,-32 213,-45 1,16 2,32 3,47 1,13 1,27 1,43zm494 11c-40,3 -81,4 -123,5l0 -346c0,-34 -28,-62 -62,-62 -34,0 -62,28 -62,62l0 346c-42,-1 -83,-3 -123,-5 3,-157 -35,-375 -70,-527 3,0 5,0 8,0 89,0 175,-27 248,-78 72,50 159,78 248,78 3,0 5,0 8,0 -35,152 -73,369 -70,527l0 0zm340 -56c-38,14 -106,32 -216,45 0,-15 0,-30 1,-43 1,-15 1,-31 3,-47 109,13 176,31 213,45l0 0zm-278 -594c-76,0 -150,-28 -206,-79 -24,-21 -59,-21 -83,0 -57,51 -130,79 -206,79 -77,0 -151,-29 -208,-80 -17,-16 -42,-20 -63,-12 -22,8 -37,28 -40,51 -10,91 -98,165 -197,165 -38,0 -76,-11 -109,-33 -56,-36 -89,-93 -89,-153 0,-34 -28,-62 -62,-62 -34,0 -62,28 -62,62 0,65 22,128 62,180 -20,3 -41,5 -62,5 -208,0 -384,-170 -384,-371 0,-201 176,-371 384,-371 25,0 50,2 74,7 22,4 45,-4 59,-21 15,-17 19,-41 11,-62 -13,-35 -20,-72 -20,-110 0,-168 147,-310 322,-310 95,0 189,42 243,103 23,25 62,28 87,5 25,-23 28,-62 5,-87 -31,-35 -70,-65 -114,-88 105,-114 253,-180 410,-180 157,0 305,66 410,180 -44,24 -83,54 -114,88 -23,25 -21,65 5,87 25,23 65,21 87,-5 54,-61 148,-103 243,-103 174,0 322,142 322,310 0,38 -7,75 -20,110 -8,21 -4,45 11,62 15,17 37,25 59,21 24,-5 49,-7 74,-7 208,0 384,170 384,371 0,201 -176,371 -384,371 -21,0 -42,-2 -62,-5 40,-52 62,-115 62,-181 0,-34 -28,-62 -62,-62 -34,0 -62,28 -62,62 0,62 -35,120 -93,156 -32,20 -68,30 -105,30 -98,0 -187,-74 -197,-165 -3,-23 -18,-43 -40,-51 -22,-8 -46,-4 -63,12 -56,51 -130,80 -208,80l0 0z"/>
   <path class="fil8" d="M6169 3859c34,0 62,-28 62,-62l0 -124c0,-34 -28,-62 -62,-62 -34,0 -62,28 -62,62l0 124c0,34 28,62 62,62z"/>
   <path class="fil8" d="M7420 1556c102,0 186,-83 186,-186 0,-102 -83,-186 -186,-186 -102,0 -186,83 -186,186 0,102 83,186 186,186zm0 -248c34,0 62,28 62,62 0,34 -28,62 -62,62 -34,0 -62,-28 -62,-62 0,-34 28,-62 62,-62z"/>
   <circle class="fil8" cx="6169" cy="4169" r="62"/>
  </g>
 </g>
</svg>
