<?xml version="1.0" encoding="UTF-8"?>
<!DOCTYPE svg PUBLIC "-//W3C//DTD SVG 1.1//EN" "http://www.w3.org/Graphics/SVG/1.1/DTD/svg11.dtd">
<!-- Creator: CorelDRAW 2017 -->
<svg xmlns="http://www.w3.org/2000/svg" xml:space="preserve" width="9.40646cm" height="5.29166cm" version="1.1" style="shape-rendering:geometricPrecision; text-rendering:geometricPrecision; image-rendering:optimizeQuality; fill-rule:evenodd; clip-rule:evenodd"
viewBox="0 0 9406 5292"
 xmlns:xlink="http://www.w3.org/1999/xlink"
 enable-background="new 0 0 64 64">
 <defs>
  <style type="text/css">
   <![CDATA[
    .fil9 {fill:#00C8FF}
    .fil3 {fill:#7DA4D6}
    .fil0 {fill:#E6E7E8}
    .fil4 {fill:#EA5556}
    .fil5 {fill:#FCC43E}
    .fil8 {fill:#001D26;fill-rule:nonzero}
    .fil7 {fill:#00C8FF;fill-rule:nonzero}
    .fil6 {fill:#252422;fill-rule:nonzero}
    .fil2 {fill:#373435;fill-opacity:0.031373}
    .fil1 {fill:#2B2A29;fill-opacity:0.101961}
   ]]>
  </style>
 </defs>
 <g id="Layer_x0020_1">
  <metadata id="CorelCorpID_0Corel-Layer"/>
  <polygon class="fil0" points="0,0 9409,0 9409,5291 0,5291 "/>
  <path class="fil1" d="M4916 5291l-1157 0 -178 0 -8 0 -64 0 -15 0 -36 0 -12 0 -65 0 -152 0 -7 0 -32 0 -15 0 -2 0 -90 0 -2 0 -29 0 -5 0 -60 0 -24 0 -7 0 -12 0 -6 0 -41 0 -1 0 -44 0 -15 0 -2 0 -6 0 -15 0 -56 0 -40 0 -6 0 -28 0 -7 0 -8 0 -14 0 0 0 -18 0 -53 0 -20 0 -38 0 -10 0 -15 0 -2 0 -14 0 -9 0 -51 0 -7 0 -42 0 -13 0 -42 0 -21 0 -56 0 -15 0 -52 0 -10 0 -5 0 -2 0 -58 0 -7 0 -6 0 -52 0 -83 0 -44 0 -17 0 -54 0 -1 0 -16 0 -2 0 -47 0 -21 0 -54 0 -38 0 -16 0 -87 0 -27 0 -31 0 -16 0 -2 0 -23 0 0 0 -12 0 -29 0 -8 0 -49 0 -22 0 -117 0 -5 0 -15 0 -41 0 -1 0 -14 0 -2 0 -61 0 -43 0 -152 0 -124 0 -49 0 -20 0 -49 0 -91 0 -16 0 -9 0 -60 0 0 0 -4 0 -1 0 -15 0 -18 0 -66 0 -22 0 -8 0 -20 0 -2 0 -107 0 -38 0 -57 0 -7 0 -58 0 -44 0 0 -15 0 -25 0 -23 0 -43 0 -9 0 -4 0 -13 0 -15 0 -5 0 -7 0 -20 0 0 0 -2 0 -23 0 -37 0 -28 0 -72 0 -9 0 -29 0 -300 0 -12 0 -20 0 -3 0 -52 0 -16 0 -29 0 -9 0 -36 0 -38 0 -33 0 -2 0 -62 0 -46 0 -68 0 -10 0 -10 0 -16 0 -3 0 -43 0 -15 0 -13 0 -19 0 -52 0 -4 0 -11 0 -36 0 -102 0 -8 0 -2 0 -20 0 -39 0 -43 0 -10 0 -18 0 -7 0 -35 0 -10 0 -23 0 -39 0 -19 0 -10 0 -10 0 -16 0 -9 0 -7 0 -23 0 -6 0 -26 0 -21 0 -2 0 -40 0 -9 0 -4 0 -46 0 -12 0 -57 0 -10 0 -13 0 -12 0 -28 0 -26 0 -46 0 -59 0 -1 0 -2 0 -20 0 -41 0 0 0 -11 0 -61 0 -62 0 -23 0 -41 0 -57 0 -16 0 -25 0 -31 0 -5 0 -5 0 -24 0 -40 0 -2 0 -74 3091 -1949 -11 9 -9 10 -7 12 -5 13 -2 13 0 14 3 13 6 13 2 4 1 4 1 4 0 5 -1 6 -2 7 -2 9 -3 10 -1 3 -1 3 -1 3 -1 4 -1 4 -1 4 -1 4 -1 5 -210 132 0 5 85 -53 -11 9 -9 11 -7 12 -4 13 -1 14 0 27 551 -344 -11 9 -9 10 -7 12 -5 13 -2 13 0 14 3 13 6 13 2 4 1 4 1 4 0 5 -1 6 -2 7 -2 9 -3 10 -1 3 -1 3 -1 3 -1 4 -1 4 -1 4 -1 4 -1 5 -442 274 0 67 836 -517 -11 9 -9 10 -7 12 -5 13 -2 13 0 14 3 13 6 13 2 4 1 4 1 4 0 5 -1 6 -2 7 -2 9 -3 10 -1 3 -1 3 -1 3 -1 4 -1 4 -1 4 -1 4 -1 5 -467 287 106 0 755 -462 -11 9 -9 10 -7 12 -5 13 -2 13 0 14 3 13 6 13 2 4 1 4 1 4 0 5 -1 6 -2 7 -2 9 -3 10 -1 3 -1 3 -1 3 -1 4 -1 4 -1 4 -1 4 -1 5 -472 287 104 0 762 -462 -11 9 -9 10 -7 12 -5 13 -2 13 0 14 3 13 6 13 2 4 1 4 1 4 0 5 -1 6 -2 7 -2 9 -3 10 -1 3 -1 3 -1 3 -1 4 -1 4 -1 4 -1 4 -1 5 -551 332 4 11 1 12 57 0 883 -531 -11 9 -9 10 -7 12 -5 13 -2 13 0 14 3 13 6 13 2 4 1 4 1 4 0 5 -1 6 -2 7 -2 9 -3 10 -1 3 -1 3 -1 3 -1 4 -1 4 -1 4 -1 4 -1 5 -583 348 1 8 84 0 891 -531 -11 9 -9 10 -7 12 -5 13 -2 13 0 14 3 13 6 13 2 4 1 4 1 4 0 5 -1 6 -2 7 -2 9 -3 10 -1 3 -1 3 -1 3 -1 4 -1 4 -1 4 -1 4 -1 5 -485 287 475 0 0 0 14 1 13 4 12 6 11 9 9 10 7 12 4 14 1 15 0 1835 1184 0 0 1597 -276 132 341 0 66 0 -1253 593 -64 0 -331 0zm487 -4514l0 0z"/>
 </g>
 <g id="Layer_x0020_1_0">
  <metadata id="CorelCorpID_1Corel-Layer"/>
  <path class="fil2" d="M549 4639c18,28 30,53 41,81 8,18 13,48 53,48 13,0 28,-3 43,-13 18,-8 30,-23 36,-43l15 -53 38 -18 3 3c-5,20 -8,41 -8,53 0,46 38,61 69,61 18,0 33,-10 33,-25 0,-20 -10,-58 -20,-89 18,-18 36,-36 56,-51l3 3c10,38 15,76 15,102 0,25 -10,51 -20,69 -18,36 -51,64 -91,64 -30,0 -64,-15 -86,-43l-3 0c-23,28 -56,51 -109,51l-18 0c-3,36 -10,61 -23,84 -33,64 -127,107 -216,107 -124,0 -185,-71 -185,-168 0,-58 20,-114 48,-152l25 10c-18,36 -30,69 -30,102 0,89 74,132 157,132 79,0 173,-48 191,-107 -8,-64 -30,-91 -66,-150 10,-18 25,-38 43,-58l3 0 0 0 0 0 5 3 0 0 0 0zm1433 -338c25,15 51,36 76,58 -15,20 -30,38 -53,53 -25,-20 -51,-38 -76,-56 18,-20 36,-38 51,-56l0 0 0 0 3 0 0 0 0 0zm13 244c-43,0 -76,28 -76,48 0,43 84,58 185,58 -13,-51 -56,-107 -109,-107zm-94 236c56,0 104,-3 140,-10 41,-10 76,-30 76,-46 0,-5 0,-8 -3,-13 -23,3 -48,3 -74,3 -74,0 -132,-18 -155,-58 -5,-13 -10,-25 -10,-41 0,-41 18,-81 48,-107 25,-23 53,-36 84,-36 51,0 94,41 122,107 15,36 28,76 28,130 0,36 -10,64 -30,86 -41,38 -114,53 -229,53l-51 0 0 0 -13 0c-28,0 -48,-5 -64,-18l-3 0c0,8 3,13 3,18 0,25 -8,58 -25,84 -51,76 -107,109 -152,109 -48,0 -107,-18 -160,-43l10 -18c18,8 41,13 74,13 86,0 198,-84 213,-163 -3,-8 -10,-15 -18,-25 -25,-30 -41,-56 -56,-81 13,-25 25,-46 36,-64l5 0c36,74 71,117 145,117l13 0 0 0 53 0 0 0 0 0 -8 3 0 0 0 0zm-371 79c5,-36 8,-74 8,-109l0 -53c0,-99 -13,-244 -23,-338 18,-20 43,-43 64,-58l5 3c13,119 18,257 18,384 0,33 -3,66 -5,89 -3,30 -20,53 -56,89l-8 -3 0 0 0 0 -3 -3 0 0 0 0zm-384 -158c3,46 25,84 104,84 51,0 91,-13 140,-36 8,-3 13,-8 13,-13 0,-30 -23,-69 -61,-104 -36,-33 -86,-64 -132,-81 -15,-8 -20,-13 -20,-20 0,-13 18,-41 33,-61l5 0c51,28 109,69 152,112 38,41 64,84 64,130 0,33 -10,66 -28,97 -56,28 -117,51 -178,51 -74,0 -122,-36 -122,-114 0,-8 0,-23 3,-41l25 0 0 0 0 0 3 -3 0 0 0 0zm-132 -132l46 74c18,28 33,56 33,104l0 61c0,48 -30,99 -81,152 -38,36 -74,51 -107,51 -48,0 -102,-15 -165,-43l8 -18c20,5 43,10 71,10 91,0 183,-66 226,-147 5,-10 8,-18 8,-23 0,-10 -5,-20 -10,-28 -23,-43 -48,-84 -76,-119 15,-23 30,-46 46,-69l3 0 0 -5 0 0 0 0z"/>
  <g id="_2083880376448">
   <g>
    <polygon class="fil3" points="3180,3704 5177,3704 5177,1136 3180,1136 "/>
    <path class="fil4" d="M5390 849l-2423 0c-38,0 -71,33 -71,71l0 2997c0,38 33,71 71,71l2423 0c38,0 71,-33 71,-71l0 -2997c0,-38 -33,-71 -71,-71zm-2210 2568l0 -2284 1994 0 0 2568 -1994 0 0 -285z"/>
    <polygon class="fil5" points="3180,1420 3467,1420 3467,1136 3180,1136 "/>
    <polygon class="fil5" points="4892,1420 5177,1420 5177,1136 4892,1136 "/>
    <path class="fil5" d="M4179 2038l381 381 -381 381 -381 -381 381 -381zm785 381l-785 -785 -785 785 785 785 785 -785z"/>
    <polygon class="fil4" points="3798,2419 4179,2038 4560,2419 4179,2800 "/>
    <polygon class="fil5" points="4892,3704 5177,3704 5177,3417 4892,3417 "/>
    <polygon class="fil5" points="3180,3704 3467,3704 3467,3417 3180,3417 "/>
    <path class="fil6" d="M2967 3918l0 -2997 2423 0 0 2997 -2423 0zm147 328l3 0c13,0 23,-3 36,-10 33,-20 46,-64 25,-97 -5,-10 -5,-18 5,-48 3,-8 5,-18 8,-30l208 0c-10,36 -23,91 13,150 13,23 36,36 61,36l3 0c13,0 23,-3 36,-10 33,-20 46,-64 25,-97 -5,-10 -5,-18 5,-48 3,-8 5,-18 8,-30l208 0c-10,36 -23,91 13,150 13,23 36,36 61,36l3 0c13,0 23,-3 36,-10 33,-20 46,-64 25,-97 -5,-10 -5,-18 5,-48 3,-8 5,-18 8,-30l208 0c-10,36 -23,91 13,150 13,23 36,36 61,36l3 0c13,0 23,-3 36,-10 33,-20 46,-64 25,-97 -5,-10 -5,-18 5,-48 3,-8 5,-18 8,-30l208 0c-10,36 -23,91 13,150 13,23 36,36 61,36l3 0c13,0 23,-3 36,-10 33,-20 46,-64 25,-97 -5,-10 -5,-18 5,-48 3,-8 5,-18 8,-30l208 0c-10,36 -23,91 13,150 13,23 36,36 61,36l3 0c13,0 23,-3 36,-10 33,-20 46,-64 25,-97 -5,-10 -5,-18 5,-48 3,-8 5,-18 8,-30l208 0c-10,36 -23,91 13,150 13,23 36,36 61,36l3 0c13,0 23,-3 36,-10 33,-20 46,-64 25,-97 -5,-10 -5,-18 5,-48 3,-8 5,-18 8,-30l64 0c79,0 142,-64 142,-142l0 -2997c0,-79 -64,-142 -142,-142l0 0 -69 0c10,-36 23,-91 -13,-150 -20,-33 -64,-46 -97,-25 -33,20 -46,64 -25,97 5,10 5,18 -5,48 -3,8 -5,18 -8,30l-208 0c10,-36 23,-91 -13,-150 -20,-33 -64,-46 -97,-25 -33,20 -46,64 -25,97 5,10 5,18 -5,48 -3,8 -5,18 -8,30l-208 0c10,-36 23,-91 -13,-150 -20,-33 -64,-46 -97,-25 -33,20 -46,64 -25,97 5,10 5,18 -5,48 -3,8 -5,18 -8,30l-208 0c10,-36 23,-91 -13,-150 -20,-33 -64,-46 -97,-25 -33,20 -46,64 -25,97 5,10 5,18 -5,48 -3,8 -5,18 -8,30l-208 0c10,-36 23,-91 -13,-150 -20,-33 -64,-46 -97,-25 -33,20 -46,64 -25,97 5,10 5,18 -5,48 -3,8 -5,18 -8,30l-208 0c10,-36 23,-91 -13,-150 -20,-33 -64,-46 -97,-25 -33,20 -46,64 -25,97 5,10 5,18 -5,48 -3,8 -5,18 -8,30l-208 0c10,-36 23,-91 -13,-150 -20,-33 -64,-46 -97,-25 -33,20 -46,64 -25,97 5,10 5,18 -5,48 -3,8 -5,18 -8,30l-69 0c-79,0 -142,64 -142,142l0 2997c0,79 64,142 142,142l74 0c-10,36 -23,91 13,150 13,23 36,36 61,36l-18 0z"/>
    <path class="fil6" d="M5106 3633l-142 0 0 -142 142 0 0 142zm-1852 -142l142 0 0 142 -142 0 0 -142zm142 -2284l0 142 -142 0 0 -142 142 0zm1567 142l0 -142 142 0 0 142 -142 0zm213 -285l-676 0c-38,0 -71,33 -71,71 0,41 33,71 71,71l320 0 0 213c0,41 33,71 71,71l213 0 0 1854 -213 0c-38,0 -71,33 -71,71l0 213 -1283 0 0 -213c0,-41 -33,-71 -71,-71l-213 0 0 -1854 213 0c38,0 71,-33 71,-71l0 -213 320 0c38,0 71,-33 71,-71 0,-41 -33,-71 -71,-71l-676 0c-38,0 -71,33 -71,71l0 2568c0,41 33,71 71,71l1994 0c38,0 71,-33 71,-71l0 -2568c0,-41 -33,-71 -71,-71l0 0z"/>
    <path class="fil6" d="M4179 3102l-683 -683 683 -683 683 683 -683 683zm-51 -1519l-785 785c-28,28 -28,74 0,102l785 785c13,13 33,20 51,20 18,0 36,-8 51,-20l785 -785c28,-28 28,-74 0,-102l-785 -785c-28,-28 -74,-28 -102,0l0 0 0 0z"/>
    <path class="fil6" d="M4458 2419l-279 279 -279 -279 279 -279 279 279zm-330 -432l-381 381c-28,28 -28,74 0,102l381 381c13,13 33,20 51,20 18,0 36,-8 51,-20l381 -381c28,-28 28,-74 0,-102l-381 -381c-28,-28 -74,-28 -102,0l0 0 0 0z"/>
    <path class="fil6" d="M3645 1812c0,-41 -33,-71 -71,-71l0 0c-38,0 -71,33 -71,71 0,41 33,71 71,71 38,0 71,-33 71,-71z"/>
    <path class="fil6" d="M3503 3026l0 0c0,41 33,71 71,71 38,0 71,-33 71,-71 0,-41 -33,-71 -71,-71 -38,0 -71,33 -71,71z"/>
    <path class="fil6" d="M4712 3026c0,41 33,71 71,71l0 0c38,0 71,-33 71,-71 0,-41 -33,-71 -71,-71 -38,0 -71,33 -71,71z"/>
    <path class="fil6" d="M4857 1812l0 0c0,-41 -33,-71 -71,-71 -38,0 -71,33 -71,71 0,41 33,71 71,71 38,0 71,-33 71,-71z"/>
    <path class="fil6" d="M4179 1207c38,0 71,-33 71,-71 0,-41 -33,-71 -71,-71l0 0c-38,0 -71,33 -71,71 0,41 33,71 71,71z"/>
   </g>
   <g>
    <polygon class="fil7" points="4770,2839 6498,2839 6564,2839 6564,2905 6564,4633 6564,4699 6498,4699 4770,4699 4704,4699 4704,4633 4704,2905 4704,2839 "/>
    <polygon class="fil8" points="6432,2971 4836,2971 4836,4567 6432,4567 "/>
    <g>
     <path class="fil9" d="M5349 3761l-45 0c-10,0 -10,-2 -19,-2l0 -297c9,0 11,-2 21,-2 49,0 99,-5 144,17 44,22 71,65 71,116l0 24c0,100 -77,142 -172,142zm-203 -408l0 829c0,4 3,7 7,7l125 0c5,0 7,-5 7,-10l0 -295 59 2 68 -5c21,-3 43,-7 61,-13 120,-40 188,-122 188,-268 0,-78 -26,-150 -83,-198 -98,-82 -234,-64 -360,-64l-56 3c-10,2 -17,2 -17,13l0 0z"/>
     <path class="fil9" d="M5736 3726c0,85 30,125 96,170 59,40 161,66 154,134 -4,36 -42,50 -75,50 -53,0 -93,-7 -139,-29 -18,-9 -36,-26 -36,-12l0 121c0,12 53,28 68,31 84,20 204,15 269,-49 3,-3 3,-4 6,-7 12,-16 14,-14 26,-38 32,-64 25,-157 -27,-209l-18 -16c-37,-32 -83,-52 -126,-76 -28,-15 -65,-37 -65,-72 0,-21 11,-33 24,-42 41,-29 135,-7 174,10 37,16 29,35 29,-110 0,-23 -112,-31 -132,-31l-24 0c-56,0 -111,22 -141,48 -37,33 -62,73 -62,127l0 0z"/>
    </g>
   </g>
  </g>
 </g>
</svg>
